<svg xmlns="http://www.w3.org/2000/svg" width="58" height="131" viewBox="0 0 57.5 131.3"><style>.a{stroke-width:1px;}</style><g transform="matrix(0.12371714 0 0 0.12371714 -60.731385 -2.3259654)"><path d="m729.8 879.5c0 0 33.6 133.3 36 136.2 2.5 2.9 11.8 0.4 12.5 1.8 0.7 1.3-4.2 15.8-10.3 19.9-6 4-37.7 13.6-41.1 19.2-3.3 5.6-5.6 10.3-3.6 13.4 2 3.1 25.4 11.4 52.7 10.5 27.2-0.9 50.4-10.7 51.6-11.6 1.1-0.9 0.6-1.4 2-2.1 1.6-0.8 0.9 0.1 2.9 0.1 2 0 22.8-2.2 23.9-5.8 1.1-3.6 2.9-24.8 0.7-29-2.2-4.2-0.9-2-0.9-2.9 0-0.9 6.5 0 6-4.7-0.4-4.7-5.8-27.2-13.6-38.8-7.8-11.6-12.7-33-13.6-48-0.9-15-2.9-37.8-13-77-10.1-39.1-33.2-90.9-33.6-95.8-0.4-4.9 23.7-44.2 33-104.5 9.4-60.3 24.1-69.2 33-101.3 8.9-32.1-4-46-1.8-50.9 2.2-4.9 43.3-28.6 52.2-50.4 8.9-21.9 30.4-81.3 34.4-90.6 4-9.4 21.9-64.3 15.2-95.1-6.7-30.8-29-74.1-29.9-75.9-0.9-1.8-4.4-2.2-4.5-3-0.2-0.8 1.9-2.5 1.9-3.9 0-1.4-0.9-22.6-3.2-24-2.2-1.4-10.9-2.1-11-3.3-0.2-1.3 1.2-6.2 4.3-12.4 5.4-10.7 3.1 1 10.9-16.3 6.1-13.6 12.1-25.6 15.4-43.6 2.1-11.5 0.2-40.9-31.7-59.2-34.9-20-65.2-9-72.1-3.3-8.4 7-21.5 22.9-17.9 29 3.3 5.7-2.9 23-3.3 27-0.4 4-17.6 9.2-19.6 17.6-2 8.5 9.4 4 10 9.4 0.7 5.4-3.1 2-4.7 6.5-1.6 4.5 2.5 17.2 2.2 20.8-0.2 3.6-4 12.9-2.5 18.8 1.6 5.8 6.4 8.9 13.8 10.2 7.4 1.3 11 2.5 14.3 7.7 3.3 5.1 5.6 10.3 1.8 11.6-3.8 1.3-12.5 0.9-17 5.1-4.5 4.2-37.3 43.3-48.9 65.6-11.6 22.3-17.9 46.9-23.2 46.9-5.4 0-32.6-15.2-46.9-31.7-14.3-16.5-16.5-19.2-16.5-23.2 0-4-7.5-17.1-6.6-21.1 0.9-4 6.5-12.5 6.1-16.1-0.4-3.6-3.5-4.3-6.1-2.9-2.7 1.3-16.5 10.3-17 17.9-0.4 7.6-8.5 2.7-9.4-1.3-0.9-4-11.2-12.5-14.7-17.4-3.6-4.9-15.7-20.3-17.6-20.8-1.9-0.5-4.4-0.3-5.8 0.6-1.4 0.9-0.5 4.7 0.2 6.5 0.6 1.7 21.8 29.2 22.4 31.9 0.6 2.7-6.2 0-7.6-1.4-1.4-1.4-16.4-11.4-17-13.4-0.6-2.1-7.3-8.7-9.9-8-2.7 0.6-3.8 5.2-3.8 5.2 0 0 3.3 7.6 8.2 12 4.9 4.4 15.8 13.7 16.4 15 0.6 1.3 1.9 7.4 0.2 4.6-1.7-2.8-12.9-10.4-13.1-11.5-0.2-1.1-6.3-5.5-8.2-4.7-1.9 0.8-3 2.1-3.5 3.2-0.5 1.1 8 12.8 12.3 15.5 4.3 2.7 10.9 8.7 12.8 10.7 1.9 2.1-4.7 3-7.3 1.3-2.5-1.7-6.9-8.2-9.5-8.4-2.5-0.2-4.9 1.9-5.1 3.2-0.2 1.3 8.2 10.7 10.3 12.2 2.1 1.4 31.7 16.1 34.7 15.3 3-0.8 11.4 5.8 11.5 6.8 0.2 0.9-1.7 8-0.8 9.3 0.9 1.3 17.7 28.4 31.9 43.6 14.2 15.2 32.2 35 33.5 35 1.3 0-50.3-14.7-50.8-14.4-0.4 0.2-0.7 1.3-1.1 1.3-0.4 0-11.6 35.8-12.1 39.2-0.4 3.3-1.6 12.3-0.4 13.4 1.1 1.1 36.4 7.4 37.7 9.8 1.3 2.5-11.8 16.7-7.4 23 4.5 6.3 18.8 7.1 16.5 14.1-2.2 6.9-14 28.9-30.1 45.6-16.1 16.7-50.5 60.3-58.4 92.2-7.9 31.9-47 171.4-49.6 212.4-2.7 41.1 9.8 43.8 15.2 92 5.4 48.2-6.3 78.8-2.2 86.1 4.1 7.3 9.8 6.6 9.5 9.5-0.3 2.8-16.4 19.9-23 23.4-6.6 3.5-34.1 12.3-39.8 13.6-5.7 1.3-12.3 8.8-11 11.4 1.3 2.5 12 10.7 37.9 11 25.9 0.3 43.6-3.2 51.5-6.6 7.9-3.5 9.8-9.5 21.2-9.2 11.4 0.3 33.1 5.7 40.4 3.5 7.3-2.2 3.8-0.3 5.7-4.7 1.9-4.4 1.9-26.8 0.6-37.9-1.3-11 1.9-10.1 1.9-10.1 0 0 3.8-5.7 2.5-9.5-1.3-3.8-14.7-50.5-18.7-54.1-4-3.6 5.4-7.6 7.6-16.1 2.2-8.5 3.6-119.6 3.6-127.7 0-8 3.6-42 11.6-50 8-8 32.1-28.1 32.1-28.1 0 0-2.7 66.5-1.3 76.8 1.3 10.3 26.7 99.1 26.7 99.1z" class="a"/><path d="m712.7 106.3c-4.4 0-8.5 1.2-13 3.7-5.1 2.8-9.2 7.6-10.3 9.8-1 2-1.6 5.3-1.7 9.6-1.4 1.6-3.7 4.1-4.7 4.8-1.1 0.9-5.8 9.4-6 10.5-0.2 1.1-2.2 3.8-2.2 3.8 0 0-2.7 0.9-3.6 1.1-0.9 0.2-2.9 2.7-4.2 4.5-1.3 1.8 0.9 4.2-0.2 5.6-1.1 1.3-11.2 23.9-12.5 25.2-1.3 1.3-9.2 8-9.2 8 0 0-4.7 2.5-5.4 3.3-0.7 0.9-10 17.9-10.9 19.6-0.9 1.8-9.8 17.2-11.8 18.1-2 0.9-3.6 1.1-4.9 1.6-1.3 0.4-15 21.4-15.8 22.5-0.9 1.1 3.3 4.9 3.3 4.9 0 0-16.5 31.5-17.6 33.7-0.3 0.6-0.9 1.1-1.7 1.6-2.1 0.6-4.3 1-6 0.7-0.9-0.1-1.9-0.2-2.9-0.1 2.9-7.3 5.5-14.1 5.9-16.4 0.9-5.1-1.8-15-0.9-18.3 0.9-3.3 11.4-7.6 10.3-12.3-1.1-4.7-15.2-7.8-39.7-4.2-24.6 3.6-33.5 14.1-33 18.1 0.4 4 12.9 2.7 14.7 6.3 1.8 3.6 1.3 19.6-0.9 25.4-2.2 5.8-19.6 44.2-19.6 44.2 0 0-15.6 37.6-16.8 42.2-1.3 4.6 1.7 21.3 2.5 24.6 0.8 3.3 4.4 22.1 21.2 27.6 16.7 5.5 30.5 2.5 34.7 1.3 1.4-0.4 3-1.2 4.4-2.1 1 0.7 11.6 8 12.9 8 1.4 0 8.7-3.3 14.7-12.3 6-9 7.6-14.5 7.4-15.8-0.2-1.3-7.6-3.6-8.2-5.4-0.5-1.3-1.1-2.7-2.1-4.6 0.3-1.8 0.5-3.4 0.5-4.1 0-1.6 90.8-188.2 91.9-190.6 1.1-2.5 3.8-5.6 4.2-7.6 0.4-2-2.5-4.5-2.5-6.5 0-2 15.4-28.3 16.3-31.5 0.9-3.1 7.4-15.2 8.5-16.3 1.1-1.1-3.8-5.6-3.8-7.8 0-2.2 6.7-8.7 12.1-12.7 5.4-4 8.5-2.2 10.7-2.9 2.2-0.7 40.2 1.1 41.3 1.1 1.1 0 1.8 2 1.8 3.1 0 1.1 13.2 1.6 14.7 1.6 1.6 0 1.6 2.2 3.8 2.2 2.2 0 23.4 1.1 24.6 1.3 1.1 0.2 0.7-2.9 0.7-4.5 0-1.6-7.4-9.6-8.5-10-1.1-0.4-25.4-2.7-27-2.7-1.6 0-4.2 2-5.6 2.2-1.2 0.2-13.7-1.6-18.5-2.4 0.6-1.6 0.9-4.1 0.7-4.5-0.3-0.6-25.1-5.8-30.1-6.2-0.6 0-1.3-0.1-1.9-0.1zm4.8 3.8c2.7 0 5.1 0.2 5.3 0.5 0.4 0.4 0.4 2.6 0.4 3.8-5.5-0.6-10.7-1.1-13.2-1-0.4 0-0.8 0-1 0.1-2.4 0.4-4.3 1-6.1 1.8-0.3-0.8-0.8-2-0.7-2.4 0.2-0.6 5.4-2 8.2-2.4 1.4-0.2 4.4-0.3 7.1-0.3zm9.8 1.5c1.7 0 12.6 2.3 13 2.6 0.2 0.2-0.2 1.2-0.6 2.2-2.7-0.4-7.2-1-12.7-1.7-0.1-1-0.2-2.8 0.1-3.1 0 0 0.1 0 0.2 0zm-28.8 3.6c0.4 0.1 1 1.2 1.3 1.9-0.3 0.2-0.5 0.4-0.8 0.6-1.4 1-3.2 2.8-4.9 4.6-0.1-0.2-0.2-0.3-0.3-0.4-0.9-0.5 0-1.7 0.6-3.2 0.6-1.4 3.6-3.7 4.2-3.6zm-128.7 187.4 2.2 0.6c-1.5 2.6-2.9 7.7-3.6 9.7-0.7-0.3-1.5-0.7-2.3-1.1 1.1-2.8 2.4-5.9 3.7-9.1zm-5.6 13.7c0.8 0.3 1.7 0.6 2.4 0.9-3.7 8.8-12.7 29.4-14.2 31.9-0.1 0.1-0.5 0.9-0.6 1.1l-2.7-1.8c5.8-11.7 12.5-25.2 13.6-28.3 0.3-0.8 0.8-2.2 1.5-3.8zm-16.5 35 2.6 1.8c-1.1 1.9-2 3.7-3.8 6.9l-2.1-2.1c0.9-1.9 2.1-4.3 3.3-6.6zm-7.8 15.4c0.7 0.5 1.4 0.9 2.1 1.3-2.9 5.4-5.6 10.3-8.2 15l-1.5-2c3.8-7.1 7.1-13.4 7.6-14.2zm-11.9 22.2 1.9 1.3c-1 2-1.8 3.5-1.8 3.7-0.2 1.3 0 5.6 0 5.6 0 0-1.3 0.7-2.5-0.2-1.1-0.9-0.4-4.9 0.2-6.2 0.1-0.2 1.6-3 2.2-4.1zm50.1 22.7c0 0 5.5 1.9 5.8 4.7 0.3 2.8-1.1 4.6-2.1 5.2-0.9 0.6-5.5 3-5.4 2.1 0.2-0.9 2.8-3.8 3-6.5 0.2-2.7-1.4-5.5-1.4-5.5zm-7.6 18.5c0 0 0 6.2-0.2 6.8-0.2 0.6-3.5 2.7-4.7 2.5-1.3-0.2-7.9-5.1-8.5-5.8 0 0 3.6-4.3 3.6-3.2 0 1.1 2.7 2.8 4.3 3.3 1.6 0.5 5.5-3.6 5.5-3.6z" style="fill:#fea906;stroke-width:1px"/><path d="m653.4 397.1c-1.3 0-14.3-5.4-18.3-5.4-4 0-10.9-0.4-14.5-2.2-3.6-1.8-12.5-7.4-17.2-7.4-4.7 0-18.3 4.5-20.3 4.5-2 0-17 2.9-18.8 2.5-1.8-0.4-3.1-2.2-2.7-4 0.4-1.8 4.9-4.3 6.7-4.7 2.9-0.6 8.1-1.5 10.2-1.9 2-0.4 9-3.5 10.6-3.7 1.6-0.2 11.9-4.4 12.1-5.8 0.2-1.8-16.3-1.3-19.4-0.9-3.1 0.4-22.5 2-25 1.1-2.8-1.2-2.2-3.8-1.6-5.6 0.7-1.8 14.1-4.7 17.2-4.5 4.7-0.4 27.7-1.1 27.5-2.9-0.2-1.8-16.7-2.2-19-2.5-2.2-0.2-10.5-1.6-14.7-1.3-4.2 0.2-7.8-0.7-10.5-2.3-1.7-2-3.3-3.5 0.4-6.4 3.8-2.9 12.1-1.1 16.3-1.3 4.2-0.2 19-0.7 21.4-0.4 2.5 0.2 6.5 0.7 6.5-0.4 0-1.1-11.4-4.7-13.4-4.7-2 0-20.3 0.2-22.5-2-2.2-2.2-2.7-6.5-0.9-7.6 1.8-1.1 20.8-1.3 24.6-1.3 3.8 0 11.9 3.2 16 3.7 4 0.4 15.1 1.9 18.9 4.1 3.8 2.2 9.6 9.4 19.2 14.3 9.6 4.9 24.6 13.2 24.6 13.2z" class="a"/><path d="m675.2 208c-0.2 0-2.7-0.7-3.7-0.4-1.5 0.4-3.1 1.3-4.3 3-1.6 2.3-7.4 8.4-9.6 17.1-2.2 8.8-2.8 16.6-2.3 17.8 0.5 1.2 15.9-27.5 15.9-27.5z" class="a"/></g></svg>
