<svg xmlns="http://www.w3.org/2000/svg" width="56" height="141" viewBox="0 0 56 141.3"><style>.a{stroke-width:1px;}</style><path d="m44 65.9c0 0-0.3 40.3-0.4 42.5-0.1 1.6-3.7 25.7-3.7 25.7l-0.6 0.1c0 0 0.1 1.1 0.4 1.6 0.3 0.5 3.1 2.5 3.1 3.2 0 0.8-0.9 1.8-1.7 1.9-0.8 0.1-5.6 0.4-7.3-0.1-1.7-0.5-3-2.1-3.3-2.5-0.3-0.4 0.3-4.4 0.1-4.8-0.2-0.4-1.1 0.1-1.3-0.4-0.2-0.5-0.1-1.5 0.1-1.9 0.1-0.4 2.7-16.6 3.2-21.3C32.9 105.3 32.1 92.7 31.9 90.9 31.7 89 29.5 77.1 29.5 77.1c0 0-5.1 26.1-5.3 29.5-0.2 3.4 0.5 26.9 0.4 27.6-0.1 0.7-1.2 0.2-1.4 0.4-0.1 0.2 0.6 3 0.4 3.8-0.2 0.9-1 1-1.5 1.3-0.5 0.3-2.8 0.3-4 0.5-0.4 0.2-1.3 0.5-1.6 0.6-0.3 0.1-7.1 0.6-8.7 0.3-1.6-0.4-1.4-1.7-1-2.2 0.4-0.5 6.1-5 6.8-6.4 0.6-1.4-0.9-22.9-1-25.4-0.1-2.5 3.2-28.3 3.2-28.3l2.1-18.9c0 0-0.7-2.5-0.6-3.6 0.1-1.1-0.1-11.1 0.4-12.9 0.5-1.8 1-7.1 1-7.1 0 0-6.3 6.3-6.6 6.8-0.3 0.5-0.5 11.2-0.1 12.3 0.4 1.1 1.3 2.8 2.7 3.8 1.4 1-7.8 0.7-7.8 0.7 0 0-2.6-15.5-2.3-17.9 0.3-2.4 11.6-18.5 12.3-19.2 0.6-0.7 14.6-5.8 15.1-6.2 0.5-0.4 1.1-1.1 1.2-1.6 0.1-0.5-1-2-1.1-2.4-0.1-0.4-0.4-0.3-0.8-0.9-0.3-0.6-0.6-2.8-0.3-3.4 0.3-0.5 0.7-0.2 0.9-0.4 0.2-0.2 0.1-2.2 0.5-3.2C32.7 3.8 34.3 2.2 35.3 1.7 36.3 1.2 39.7 0.1 42.4 0.6c2.7 0.4 3.8 2.4 4.5 3.6 0.6 1.2 1 4.8 0.8 5.3-0.2 0.5-0.8 0.8-0.9 1.3-0.1 0.4 0 1.6-0.3 2.3-0.3 0.7-0.9 0.1-1.1 0.9-0.2 0.9 0 3.1-0.3 3.6-0.3 0.5-0.5 1.4-1.3 1.6-0.8 0.2-0.5 1.1-0.1 1.3 0.4 0.2 6 4.3 6.7 5.1 0.7 0.9 2.9 15.9 3.2 16.4 0.3 0.6 1.9 2.1 1.9 3.2 0 1.2-1.3 4.8-2.2 5.3-0.9 0.5-2.2 1.5-4 1.1-1.9-0.4-3.6-5.8-3.3-6.7 0.3-0.9 1.8-0.9 1.9-1.7 0.1-0.8-2-2.2-2.2-3.1-0.2-0.9-0.6 4.3-0.6 4.3 0 0-0.4 14.1-0.6 15.1-0.2 0.7-0.3 0.8-0.4 1.3-0.1 0.5 0.2 1.4 0.2 1.9 0.1 0.6 0 3.1 0 3.1z" class="a"/><path d="m41.5 17.5c-0.2-0.2-1-0.1-0.9 0.2 0.3 0.9 1.1 2.4 1.3 2.7 0.2 0.4 4.4 6.7 4.5 7 0.1 0.3 0.2 3.5 0.2 3.5 0 0-0.7 0.2-1 0.4-0.3 0.2-3.6 4.6-3.8 4.9-0.2 0.3-0.1 1.4-0.4 1.8-0.3 0.4-1.1 0.4-1.4 0.7-0.4 0.3-32.7 32.1-33.6 32.6-0.9 0.5-0.7 1.9-1.4 2.2-0.7 0.4-2.1 0.3-2.4 0.8-0.3 0.5 0.3 2.6 0 3.5-0.3 0.9-2.2 3.7-2.3 4.1-0.1 0.4-0.1 1.4 0.6 2 0.7 0.6 2.2-0.5 2.4-0.1 0.2 0.4 0.2 2 1.4 2.7 1.2 0.7 3.6 0.4 4.5-0.2 0.9-0.6 31.4-28.7 31.4-28.7 0 0 0.2 0.1 1.6 0.7 1.4 0.6 3.7 0.3 4.9-0.8 1.2-1.1 2.8-3.9 2.4-7.2-0.4-3.1-1.8-4.6-3.6-5.2-1.4-0.5-2.7 0.3-3 0-0.4-0.3 0.8-2.2 1-2.7 0.2-0.6 1.1-1.8 1.6-2 0.5-0.2 3.5 1.2 4.5 0.6 1.1-0.6 4.9-5.3 5.2-5.7 0.3-0.4 0.6-2.9 0.5-3.4-0.1-0.5-1.3-1.5-2-1.7-0.7-0.1-5.1 0.5-5.1 0.5 0 0-0.4-3-0.4-3.6 0-0.6-3.7-5.5-3.9-6.1-0.3-0.6-1.6-2.5-2.6-3.6zm10.4 17c0.5 0.5-0.5 1.4-1.1 2.1-0.6 0.7-1.2 1.4-1.6 1.1-0.4-0.3-0.5-0.3 0.3-1.2 0.1-0.1 0.4-0.5 0.7-0.8 0.3-0.3 0.7-0.7 0.8-0.8 0.3-0.3 0.6-0.4 0.8-0.2z" style="fill:#fea906;stroke-width:1px"/><path d="m7.6 59.8c0 0 1 1.7 1 2.3 0 0.6-0.4 3.8-0.3 4.2 0.1 0.4 2.1 2.4 2.6 2 0.7-0.6-1.2-1.8-1.2-2.5 0-0.6 0.2-1.7 0.4-1.7 0.2 0 0.3 1.3 0.5 1.7 0.2 0.4 2.1 1.9 2.4 2.1 0.4 0.2 1.7 0.4 1.8-0.1 0.1-0.4-0.3-1-0.8-1.2-0.5-0.2-1.8-1.2-1.8-2-0.1-0.8 0-1.3 0.1-1.4 0.1 0 0.5 1.2 0.8 1.7 0.3 0.6 2.4 1.6 2.8 1.6 0.4 0 0.8-0.6 0.8-0.8 0-0.3-1.7-1.6-2-2-0.3-0.4-1-2-0.7-2.1 0.1-0.1 1.3 1.5 1.6 1.7 0.3 0.2 1.7 1.3 2.1 1 0.8-0.7-0.2-1.6-0.7-1.9-1.5-0.9 1.1-0.6-1.3-2.2-0.5-0.3-2-1.2-2.4-1.2-0.4-0.1-5.7 0.7-5.7 0.7z" class="a"/></svg>
