<svg xmlns="http://www.w3.org/2000/svg" width="69" height="129" viewBox="0 0 69.3 129.3"><style>.a{fill-opacity:0.9;stroke-width:1px;}</style><path d="M30.4 1.2C28.9 0.9 27.3 1.1 25.9 1.8c-1.4 0.7-3.2 2.3-3.4 3.8-0.3 2-0.6 4.5-0.2 6.5 0.2 0.8 0.6 1 0.9 1.8 0.1 0.3 0.7 1.1 0.8 1.4 0.2 1.5 0.2 3.4-0.2 4-0.5 0.7-4.3 1.1-6.3 2.1-1.6 0.8-3.6 1.4-4.6 2.9-0.8 1.2-7.8 17.2-7.7 18.8 0.1 2.9 4.9 12.9 4.9 12.9l5.7-4.2c0 0-2.5-4.8-2.7-7.5-0.1-0.9 0-1.8 0.5-2.5 0.7-1.1 2.9-3.7 3.2-2.4 1.3 6.6 1.2 26.4 1.2 26.4l0.1 7.7c0 0-1.5 14.5-0.7 21.7 0.3 2.9 1.2 5.5 1.4 8.5 0.2 2.1 0.3 5.8 0.2 6.5-0.1 0.7 0.1 10-0.5 10.5-1 0.8-3 1.5-3.4 1.6-0.4 0.1-2.9 1.3-3.3 2.7-0.1 0.4 0.3 0.8 0.5 1.2 0.2 0.4 1.3 0.6 2 0.7 1.5 0.2 3.1 0.1 4.6-0.3 1-0.3 1.8-1 2.7-1.5 1.5-0.7 4.6-2.1 4.6-2.1 0 0 2.1-0.6 2.3-0.2 0.2 0.3 0.2 1.6 0.3 2.4 0.1 0.7 0.3 1.5 0.8 2 1.1 1.1 2.4 0.9 3.9 1 1.3 0.1 3 0.1 3.9-0.8 0.5-0.6 0.2-1.2 0-2-0.2-0.7-0.8-1.6-1.1-2.2-0.3-0.7-1.1-1.4-0.6-1.9 0.4-0.4 1.6-0.4 2.1-1 0.3-0.5 0-2.7 0-4 0-3.2-0.3-6.4 0.1-9.6 0.7-5.9 3-11.6 3.7-17.5 0.6-4.2 0.5-8.5 0.7-12.7 0.1-4 0.4-8.1 0-12.1-0.3-3.7-2-11.1-2-11.1 0 0-1.8-9.4-1.5-12.7 0-0.6 1.3-0.2 1.8 0.1 2 1.1 2.2 4.2 4 5.6 1 0.8 2.3 1.4 3.6 1.4 1.2 0 2.8-0.2 3.5-1.1 1-1.2 1-3.1 1.4-4.6 0.2-0.8-0.2-1.2 0.3-1.9 0.4-0.7 1.1-1.4 1-2.2-0.2-1.9-2.3-3.6-4.2-3.6-0.7 0-1.7 1.2-1.7 1.2 0 0-2.2-1.8-3-2.9-1.9-2.7-2.7-8-3.8-9.1-1.6-1.5-4.5-1.5-7.6-2.7-0.7-0.3-1.8-0.4-2.1-1-0.3-0.5-0.5-1.2-0.5-1.9 0.1-0.8 1.1-0.7 1.6-1.3 0.6-0.8 0.9-1.8 1.3-2.7 0.3-0.8 0.2-1.7 0.3-2.6C35 10.4 35.8 8.6 35.9 7.8 36 6.5 36.1 5.6 35.5 4.5 34.5 2.8 33 1.7 30.4 1.2ZM29.5 85.1c0 0 0.8 4.1 0.8 5.6 0 2.5-0.5 4.9-0.9 7.3-0.3 2.2-0.5 3.4-0.9 5.7-0.1 0.8-0.7 3.4-0.7 3.4 0 0-0.3-3-0.3-3.7-0.2-2.7-0.1-7.2-0.1-7.2 0 0 0.1-3 0.4-4.5 0.4-2.3 1.6-6.7 1.6-6.7z" class="a"/><path d="M64.7 23.3C64.5 23.3 64.2 23.4 64.1 23.4 63.8 23.6 63.3 23.9 63.2 24.1 63.2 24.3 63.4 24.8 63.6 24.9 63.7 25 64.4 24.9 64.4 24.9L64.7 25.7C64 25.9 63.2 26.2 62.3 26.5 62.2 26.2 62 25.7 62 25.7 62 25.7 62.6 25.4 62.7 25.2 62.7 25 62.5 24.5 62.4 24.3 62.2 24.1 61.5 24.3 61.2 24.4 60.9 24.5 60.4 24.8 60.4 25 60.4 25.3 60.5 25.7 60.7 25.9 60.8 26 61.5 25.8 61.5 25.8L61.9 26.7C61 27 60.1 27.3 59.3 27.6 59.2 27.3 59 26.9 59 26.9 59 26.9 59.7 26.6 59.7 26.4 59.8 26.2 59.6 25.6 59.4 25.5 59.2 25.3 58.6 25.4 58.3 25.6 57.9 25.7 57.5 26 57.4 26.2 57.4 26.4 57.6 26.9 57.8 27 57.9 27.1 58.6 27 58.6 27L58.9 27.7C58 28.1 57.1 28.4 56.4 28.7 56.3 28.4 56.1 28 56.1 28 56.1 28 56.8 27.7 56.8 27.5 56.9 27.3 56.7 26.7 56.5 26.6 56.3 26.4 55.7 26.5 55.4 26.7 55 26.8 54.6 27.1 54.5 27.3 54.5 27.5 54.7 28 54.9 28.1 55 28.2 55.7 28.1 55.7 28.1L56 28.9C55.2 29.2 54.6 29.5 54.6 29.6 54.4 29.9 54.6 32.1 54.6 32.1L25.8 52.6C25.8 52.6 24.8 51.3 24.8 50.3 24.7 49.8 24.5 48.8 25 47.9 25.6 46.8 26.1 46.2 26.8 45.2 27.3 44.6 27.7 44.2 27.5 43.6 27.1 42.7 26.1 42.9 25.1 43.2 24 43.4 23.2 44 22.4 44.6 21.5 45.3 20.9 46.2 20.2 47.1 19.4 48.1 18.8 49.1 18 50 17.3 50.9 16.8 52 15.9 52.7 14 54 11.7 53.8 9.4 54.2 7.1 54.4 5 55 4 56.1 3 57.2 2.7 57.6 2.3 59.3 2.1 60.7 2.4 62.2 2.9 63.5 3.8 65.7 4.9 67.9 6.5 69.7 8.1 71.6 10.1 73.6 12.4 74.6 13.7 75.2 15.3 75.3 16.7 75.1 18.2 74.8 19.7 74.3 20.5 72.9 21.4 71.4 21.5 70 22.2 68.6 22.8 67.5 23.1 66.2 24.1 65.3 25 64.5 26.2 64.1 27.3 63.8 28.4 63.5 29.6 63.1 30.6 62.5 31.4 61.9 32.2 61.5 32.3 60.7 32.4 60.2 32.2 59.6 31.7 59.5 30.7 59.4 29.9 59.9 28.9 60.2 28.1 60.4 27.1 60.4 26.4 60 25.9 59.8 25.7 59.1 25.7 58.6 25.7 58.2 26.1 57.7 26.1 57.7L56.4 34.7 60.4 34.5 64.6 29.4C64.6 29.4 65.8 29.5 66.5 29.5 67 29.5 67.8 29.4 68.1 29.1 68.6 28.6 68.8 27.7 68.7 27 68.6 26.3 68.4 25.9 67.8 25.5 67.4 25.2 66.6 25.1 66.1 25.2 65.9 25.3 65.5 25.5 65.2 25.6 65 25.2 64.8 24.8 64.8 24.8 64.8 24.8 65.5 24.5 65.5 24.3 65.6 24 65.4 23.5 65.3 23.4 65.1 23.3 64.9 23.2 64.7 23.3z" style="fill:#fea906;stroke-width:1px"/><path d="m14.3 48.3c0 0 2.2 3.8 2.3 4.1 0 0.3-0.2 0.4-0.2 0.4 0 0 0.5 0.3 0.8 0.4 1 0.2 3.1 0 3.1 0 0 0 1.2 0.3 1.6 0.6 0.3 0.2 0.2 0.9-0.1 1-0.5 0.2-1.8-0.1-2.7 0.3-0.4 0.2-0.6 0.6-0.7 1-0.1 0.4 0.2 0.8 0.4 1.2 0.4 0.5 0.6 0.6 1.1 0.8 0.6 0.3 1.1 0.1 1.8 0.3 0.3 0.1 0.8 0.2 0.8 0.5 0 0.5-0.4 0.8-0.8 1.1-0.7 0.6-1.5 0.9-2.4 1.1-0.9 0.2-2.3 0.2-2.6-0.1-0.3-0.3-1.3-0.9-1.7-1.5-0.6-0.8-0.5-1.9-1.1-2.7-0.2-0.3-0.8-0.6-0.8-0.6 0 0-2.9 0.7-3.1 0.5C9.8 56.4 8 52.3 7.5 50.2 6.9 48 5.6 43.7 5.6 43.7Z" stroke-width="1px"/><path d="m54.3 37.6c0 0 0-0.9-0.2-1.3-0.5-0.7-1.1-1.3-2-1.3-0.6 0-1.3 0.7-1.7 1.1-0.5 0.4-1 0.6-1.2 1.3-0.1 0.4 0.1 1 0.4 1.4 0.3 0.4 1.2 0.8 1.2 0.8z" class="a"/></svg>
