<svg xmlns="http://www.w3.org/2000/svg" width="63" height="147" viewBox="0 0 62.7 146.7"><style>.a{stroke-width:1px;}</style><path d="m29.9 92.3c-1.5 7.1-3.9 24.8-4.6 25.3-0.7 0.4-1.6 0.9-1 1.5 0.5 0.6 1.2 1.6 2.2 1.7 1.6 0.1 4.6 0.4 5.4 0.7 0.8 0.2 2.4 0.8 2.5 2.1 0.1 1.1-2 2-3.3 2.2-1.3 0.1-9.1 0.6-9.4 1-0.2 0.4-0.9 3.9-1.3 4.4-0.4 0.5-0.3 0.4-0.3 0.8 0 0.4 0.6 0.3 0.6 0.8 0 0.4 0.4 2.7 1.3 3.8 1.2 1.5 5.8 4 6.7 5.1 0.9 1.2-0.6 2.8-2.6 3.6-2 0.8-4.4 0-5.2-0.4-0.7-0.4-8-4.4-8.5-4.6-0.5-0.3-1.1 0.6-1.7 0.1-0.6-0.5-2.1-1.2-2.4-2-0.3-0.8 1.3-4.6 1-5.3C9.1 132.4 8.2 132 8.2 131.3c0-0.7 1.7-5 2.3-7.3 0.2-0.8 0.6-6.1 1-9.3 0.4-3.2 3.4-10.6 3.6-12.2 0.1-1.6-0.6-15.1-1.1-16.6C13.5 84.4 9.8 73.5 9.4 70.9 8.6 64.7 7.3 58.4 6.7 52.6 6.2 46.8 4.2 40.5 5.6 35.1 7 29.7 9.3 27.7 9.6 27c0.3-0.7 0-1.9 0.4-2.5 0.4-0.6 2 0.2 2.4-0.4 0.4-0.5 0.1-2.4-0.3-3.4-0.4-1-0.7-2.9-0.7-4.6 0-1.1 0.3-4.6 1.1-6.2 0.9-1.8 3.9-4.4 5.1-4.8 1.1-0.4 5.5-0.5 8 0.8 2.5 1.3 3 3.2 4.2 4.8 0.8 1.1 2.1 3 2.2 3.6 0.1 0.7-1.3 0.1-1.5 0.6-0.1 0.4-0.3 1.7-0.5 2.2-0.2 0.4-0.4 0.6-0.7 1.3-0.2 0.5 0.7 1.3 1.2 2.8-0.6 1.6-1.9-0.3-2.4 1.1-0.3 1-2 2.8-2.2 3.5-0.2 0.7-0.1 1.6-0.9 2-0.7 0.4-2 0-3-0.5-1-0.5-1.5-0.2-1.6 0.4 0 0.8 2.3 2.7 2.5 4 0.1 1.3-0.6 3.1-0.4 4 0.2 0.8 3.7 4.9 4 6.2 0.4 1.3-0.2 2.4 0 3.1 0.2 0.7 1.8 0.7 2.5 0.4 0.7-0.4 1.6-3.1 3.1-3.9 1.6-0.8 1-2.2 1.5-2.3 0.4-0.1 1.1 1 1.2 1.5 0.1 0.5 1.9-2.3 2.4-2.3 0.5 0 2.5 1.4 2.8 2.1 0.3 0.7 0.4 3.9 0.1 4.3-0.4 0.4-4.6 2.4-5 2.8-0.4 0.4-1.6 0.6-1.9 1.4-0.3 0.8-0.5 4 0.1 4.2 0.7 0.1 3.6-2.9 4.1-4 4-3.9 5.8 5.1 4.7 5.7-1.1 0.6-2.4 1.1-3.5 1.1-1 0-1.8 1.3-2.3 1.8-1.2 1.1-1.5 2.2-1.5 3.2 0 0.8-2.5 2.5-2.6 3-0.3 1.4 0.7 7.6 0.5 8.1-0.2 0.4-1 0.3-1.1 0.9-0.1 0.6 0.6 8.4-1.8 19.5z" class="a"/><path d="m53.2 70.3c1.4-0.9 1.9-2.3 1.6-2.8-0.3-0.5-3.4-2.8-5.6-7C47.1 56.2 31.7 29.6 28.7 24.3 28.5 24 27.9 23.8 27.1 23.6c-0.3-0.1-0.8 0.2-0.9 0.3 0 0.2 0.6 1.7 0.6 1.7 0 0 18.7 34.6 20.3 37.9 1.6 3.4 1.8 6.3 1.9 6.7 0.1 0.4 2.1 1.3 4.1 0.1z" style="fill:#fea906;stroke-width:1px"/><path d="m37.5 49.1c0 0 1 0.3 1.8 0.2 0.7-0.1 2.2-1 2.4-1.2 0.2-0.2 0.6-1.6 1.2-0.9 0.3 0.3-0.4 1.8-0.5 2.1-0.1 0.2-1.5 1.2-1.4 1.3 0.1 0.1 1.3-0.6 1.6-0.7 0.2-0.1 0.9-1.5 1.4-1.1 0.6 0.5-0.5 2-0.7 2.3-0.2 0.3-1.6 0.9-1.6 1.1 0.1 0.3 1.3-0.2 1.7-0.5 0.2-0.2 1-1.2 1.3-0.6 0.3 0.8-1 1.8-1.5 2.1 0.3-0.1 0.9-1.4 1.2-1.1 0.1 0.1 0.4 0 0.5 0.4 0 0.2-1.7 2.3-3.7 2.8-2 0.5-3.5-6.3-3.5-6.3z" class="a"/></svg>
