<svg xmlns="http://www.w3.org/2000/svg" width="91" height="176" viewBox="0 0 90.7 176"><path d="M25.1 2.2 7.6 21.2 7.1 19.2 24.1 1.2Z" style="fill:#fea906;stroke-width:1px"/><path d="m86.6 31.4c1.3 1.3 2.3 3 2.5 3.7 0.1 0.6-2.6 8.7-4.8 11.7-0.6 0.9-1.3 1.9-2.3 2.3 0 0-5.4 0.5-8.2 0.5-2.2 0-6.9-0.4-7.6-0.1-0.7 0.3-0.8 1.2-0.8 1.2 0 0-0.5 19.6-0.2 20.7 0.3 5.6 0.3 5.4 1.6 13.3 0.2 2.3 1.2 6.3 1 6.8-0.1 0.4-4.7 1.7-5.1 2.1-0.3 0.3-0.2 19.1 0.2 28.6 0.4 12.2 2.4 36.6 2.4 36.6 0 0-1.3 0.9-1.5 1.6-0.2 0.5 0.1 1.2 0.4 1.7 1.4 1.9 4.5 2.8 6 4 0.6 0.5 0.7 1.7 0.4 2.5-0.2 0.6-0.9 0.9-1.5 1-2 0.2-4.5 0.3-6.6-0.4-1.8-0.7-3.3-2.8-4.4-3.5-0.7-0.5-1.8 0.3-2.6 0-2.2-0.7-5.1-3.2-5.8-3.9-0.5-0.6 0.6-18.2 0-27.3-0.1-2.1-0.7-4.1-0.9-6.2-0.3-3.7 0.2-7.5-0.1-11.2-0.5-5.3-2.6-15.9-2.6-15.9 0 0-1.9 8.1-2.5 12.2-0.7 4.6-1.1 9.3-1.4 14-0.3 4.1-0.1 8.2-0.5 12.3-0.1 1.1-0.5 2.2-0.5 3.4-0.1 5.9 2.1 16.9 2 17.5-0.1 0.7-2.3 2.7-2.3 2.7 0 0 0.1 1.3-0.2 1.8-0.3 0.5-2.7 1.5-4 2.3-1.7 1.1-3 2.6-4.8 3.4-1.1 0.5-2.3 0.8-3.5 0.9-1.7 0.2-4.8 0.3-5.1-0.3-0.3-0.6-0.9-1.5-0.8-2.3 0.1-0.7 0.8-1.3 1.3-1.8 1.8-1.9 5.4-2.4 6.2-5 0.2-0.6-0.4-1.2-0.5-1.8-0.8-5.7 0.3-11.6 0-17.4-0.2-4.8-1.3-9.5-1.3-14.3 0-2.1 0.7-4.1 0.6-6.2-0.1-0.9 0.1-1.8 0.1-2.7 0-1.2 0.2-2.2 0.2-3.4 0.5-7.3 0.4-21.7 0.1-22.4-0.4-0.9-1.9-0.4-2.1-1.4-0.2-1 0.1-2.1 0.2-3.1 0.1-0.9 0.1-2.5 0.2-3.5 1-6.2 1.1-9.7 1.5-13.7 0 0 0.2-16 0-17.1-0.2-0.9-0.9-3.2-0.9-3.2 0 0-16.3-1.4-17.4-1.3-1 0-1.8-0.7-2.5-1.4-2.7-2.6-5.9-9.7-5.9-9.7 0 0 0.2-1.9 0.7-2.9 0.3-0.5 1.3-1.8 1.3-1.8l0-5.6c0 0-0.2-1.1-0.5-1.6C3.3 26.5 2.2 25.8 1.7 24.8 1.3 23.7 1 22.5 1.3 21.5c0.4-1.4 1.6-2.5 2.7-3.4 0.7-0.6 1.4-1.3 2.3-1.3 0.6-0.1 1.3 0.2 1.8 0.6 0.8 0.7 1 1.9 1.3 3 0.2 0.8 0.4 1.7 0.3 2.5-0.2 1.4-1.5 2.4-1.5 3.8 0 1.7 0.9 3.2 1.6 4.7 1.6 3.2 5.3 8.7 5.9 9 0.6 0.3 4.2 0.4 6.2-0.1 1.2-0.3 2.4-0.8 3.2-1.7 1.2-1.3 1.5-4.5 2.2-4.9 0.8-0.5 4.9-0.7 7.2 0 0.5 0.1 1 0.2 1.5 0.4 0.4 0.1 1.1-0.2 1.5-0.4 1.5-0.9 2.2-3.6 2.2-3.6 0 0 0.7-0.1 0.7-0.4 0.1-1.9-0.3-2.8-0.8-4.1-0.2-0.5-0.6-1.5-0.6-1.5 0 0-0.6-0.3-0.9-0.7-0.5-0.9-0.4-2.2-0.2-3.2 0.1-0.5 0-1.2 0.4-1.5 0.2-0.1 0.6 0.1 0.6 0.1 0 0-0.2-1.9-0.2-2.8 0.1-1.2 0-2.4 0.6-3.4 0.5-0.8 1.3-1.4 2.1-1.9 0.8-0.5 1.7-0.9 2.7-1.1 1.2-0.2 2.5-0.3 3.6 0.1 1.2 0.3 2.3 1 3.2 1.9 0.9 0.9 1.7 2 2 3.2 0.2 0.8-0.1 1.7-0.3 2.5-0.1 0.6-0.3 1.8-0.3 1.8 0 0 0 0.6 0.3 0.8 0.2 0.2 0.1 0.5 0.2 0.7 0.5 0.7 0 1.4-0.2 2.2-0.2 0.6-0.3 1.1-0.7 1.6-0.3 0.4-1 0.6-1.2 1-0.7 1.2-0.3 4.1-0.3 4.1 0 0 1.2 3.2 2.6 3.9 0.6 0.3 1.5 0.2 2.2 0 0.5-0.1 0.9-0.6 1.4-0.8 2.2-0.8 6.5-1.4 7-1.1 0.5 0.3 3.9 6.5 4.9 7.1 0.6 0.4 7.6 1.9 8.2 1.6 0.6-0.3 5.2-9.8 5.2-9.8l0.6-1.7c0 0-1.4-2.5-2-3.9-0.5-1.2-0.5-2.5-1-3.7-0.5-1.3-1.6-2.3-2-3.6-0.2-0.6-0.4-1.2-0.1-1.7 0.3-0.5 1.1-0.3 1.5-0.7 0.4-0.4-0.1-1.4 0.4-1.7 0.5-0.2 1.2 0.3 1.6 0.7 1.6 1.5 2.4 3.8 3 6 0.2 0.8 0.1 1.7 0.3 2.5 0.2 1 1 3 1 3 0 0 0.8 3.5 1 4.8 0 0.3 0.3 0.7 0.5 1z" stroke-width="1px"/></svg>
