<svg xmlns="http://www.w3.org/2000/svg" version="1.1" width="114.667" height="130.667" viewBox="0 0 114.667 130.667"><path d="M21.967 45.72c.987-4.639 1.694-9.265 3.395-13.294.687-1.628 1.83-3.167 3.3-4.148 1.712-1.144 4.41-.318 5.94-1.697.502-.454.76-1.21.753-1.886-.011-1.296-.941-2.071-1.508-3.183-.461-.903-.493-5.018.122-6.735.627-1.751 1.784-2.756 3.46-3.564 1.501-.724 3.542-.717 4.997.094 1.927 1.074 3.023 3.43 3.583 5.563.136.517.036 1.083-.094 1.602-.11.437-.47.787-.566 1.226-.162.737.173 1.529 0 2.263-.161.684-.547 1.305-.943 1.885-.238.35-.627.583-.848.943-.229.373-.562.798-.472 1.226.056.26.34.425.566.566.76.47 1.736.467 2.546.848 1.877.884 3.575 2.116 5.28 3.3.846.588 1.754 1.838 2.45 1.886.423.028.993-.546.85-.943-.28-.772-1.555-1.543-1.886-2.546-.158-.477.08-1.012 0-1.508-.176-1.08-.567-2.16-.613-3.253-.04-.937-.31-1.83.235-2.593.239-.333 1.038-.66 1.038-.66l1.32-17.159.47-.283.378.377-1.131 16.5s.88 1.424 1.32 1.932c.8.926 1.237 1.918 1.508 3.112.223.982.343 1.37.141 2.357-.113.555-.34 1.083-.33 1.65.045 2.298 1.324 2.626 1.698 3.488.777 1.796 1.784 6.612 1.697 8.485-.055 1.165-.05 2.545-.849 3.394-.429.456-1.165.575-1.791.566-2.296-.033-5.684-2.321-6.506-2.263-.618.044-.813.997-.942 1.603-.357 1.67.408 3.391.565 5.091.157 1.695.623 3.85.377 5.091-.13.656-1.27.696-1.508 1.32-.18.474.01 1.035.188 1.509.75 1.99 2.51 3.443 3.583 5.28 1.576 2.696 3.815 6.924 4.171 8.39.306 1.257.355 13.388.355 13.388l-9.711-.66s.362-9.113.188-10.465c-.21-1.636-1.731-3.03-3.205-3.771-3.912-1.965-13.105-.848-13.105-.848s-6.386 5.19-5.846 8.013c1.13 5.904 4.337 17.16 4.337 17.16l2.074 7.825 1.06 2.583-3.318.795-.759-1.21s-1.572.523-2.312 1.043c-.639.45-1.304 1.175-1.942 1.625-.658.464-1.444.933-2.23 1.115-1.554.36-2.951.52-3.98.083-.66-.28-.625-1.336-.3-1.974.546-1.074 1.443-1.883 2.468-2.552 1.187-.775 3.344-2.225 3.116-2.973-1.093-3.582-3.124-7.723-4.436-11.923-1.385-4.432-2.557-8.867-3.112-13.577-.12-1.029.233-2.12.755-3.017 2.681-4.605 6.565-9.037 9.428-13.765.879-1.451.54-3.517-.095-5.09-.898-2.228-3.808-3.142-4.902-5.28-.365-.714-.638-1.574-.472-2.357z" fill="#000" fill-opacity="1" stroke="none" stroke-width="1" stroke-linecap="butt" stroke-linejoin="miter" stroke-opacity="1"/><path d="M31.6 75l-.8 20.733.6 2.334s1.667.733 1.8.066c.133-.666.067-6.866.067-6.866l-.2-16.667z" fill="#000" fill-opacity="1" stroke="none" stroke-width="1" stroke-linecap="butt" stroke-linejoin="miter" stroke-opacity="1"/><path d="M32.933 82.2c.6-.2 6.467-7.333 6.467-7.333l-1.067-.067-5.6 6.467-1.133-1.2-4.467-5.134-.666.334 5.4 6.6zM38.8 77.533l3.467 1.867-.467.8-3.467-2.067z" fill="#000" stroke="none" stroke-width="1" stroke-linecap="butt" stroke-linejoin="miter" stroke-opacity="1" fill-opacity="1"/><path d="M37.2 75.067l-.933 9.333s2.2-.867 2.2-1.6c0-.733.933-7.933.933-7.933l-2.133-.067zM44.2 78.667l-.667-4.6s-1.133-.267-1 .2c.134.466.867 5.733.867 5.733z" fill="#000" stroke="none" stroke-width="1" stroke-linecap="butt" stroke-linejoin="miter" stroke-opacity="1" fill-opacity="1"/><path d="M46.669 63.162c.265.506.209 9.551.189 10.323-.095 3.611-27.734 3.846-27.776.095-.007-.645-.323-9.673 0-10.23 2.016-3.466 25.92-3.38 27.587-.188z" fill="#fea906" fill-opacity="1" stroke="none" stroke-width="1" stroke-linecap="butt" stroke-linejoin="miter" stroke-opacity="1"/><ellipse cx="33.101" cy="-63.401" rx="12.862" ry="2.098" transform="scale(1 -1)" opacity="1" fill="#fff" fill-opacity=".974" stroke="none" stroke-width=".938"/><path d="M67.354 52.424l-1.208.045-.113 2.398-.633 1.166s-.26.726-.234 1.1c.034.484.179 1.004.5 1.367.323.365.817.609 1.3.666.737.087 1.833-.266 2.223-.902.583.029 10.781.128 19.96.191.026.122.058.242.099.357.116.325.73.423.695.766-1.054 10.546-4.525 34.318-4.525 34.318l-10.748 8.297 1.037 2.028 1.814-1.67c.487 1.126 4.905 10.307 5.221 10.965l-2.076 11.55s-.332.747-.467 1.133c-.396 1.136-1.522 2.383-1 3.467.303.628 1.237.771 1.934.8.512.022 1.107-.1 1.467-.466.325-.33.328-.876.4-1.334.163-1.032.066-3.133.066-3.133l1.924-11.847c2.391-1.882 10.15-8.42 10.64-8.834l8.032 8.892s.306 1.055.463 1.766c.088.399.659.602 1.064.554.425-.05.862-.258 1.088-.62.194-.312.241-.622.188-.985a1.196 1.196 0 0 0-.72-.91c-.486-.208-.952-.512-.952-.512l-16.236-17.72-.262-.76s2.514-25.694 3.77-34.819c.072-.529 1.11-.616 1.415-1.054.043-.061.074-.134.108-.204 4.788.026 8.736.036 8.818-.007.313-.166.254-1.061.03-1.11l-8.758-.011c-.005-.012-.005-.025-.01-.036-.288-.63-1.084-.919-1.744-1.13-.33-.106-.704-.142-1.037-.05-.6.168-1.22.512-1.555 1.038-.035.055-.05.115-.076.172l-19.73-.228c.038-.33 0-.455-.106-.811-.134-.453-.265-.621-.627-.924-.398-.333-.104-.262-.603-.4-.247-.069-.72-.235-.72-.235zM84.54 96.879l1.065.72-2.428 13.508-4.772-9.334zm4.313.467l6.085 6.738-9.656 7.807 2.244-13.82c.366-.176.96-.512 1.327-.725z" fill="#000" fill-opacity="1" stroke="none" stroke-width="1" stroke-linecap="butt" stroke-linejoin="miter" stroke-opacity="1"/><path d="M52.232 76.078a20.553 21.025 0 0 0-20.554 21.026 20.553 21.025 0 0 0 .088 1.777l.213 6.767a22.91 21.025 0 0 0-.018.317 22.91 21.025 0 0 0 .078 1.644l.012.34.027-.049a22.91 21.025 0 0 0 22.793 19.09 22.91 21.025 0 0 0 22.91-21.025 22.91 21.025 0 0 0-2.13-8.795l.03.014-.273-.512a22.91 21.025 0 0 0-.197-.37l-4.63-8.667a20.553 21.025 0 0 0-.179-.33l-.226-.424-.008.004a20.553 21.025 0 0 0-17.936-10.807z" opacity="1" fill="#fea906" fill-opacity="1" stroke="none" stroke-width=".962"/><ellipse cx="55.033" cy="106.567" rx="20.9" ry="18.567" opacity="1" fill="#fff" fill-opacity=".984" stroke="none" stroke-width=".99"/><ellipse cx="56.202" cy="116.867" rx="5.036" ry="4.831" transform="matrix(.9971 -.07614 .06156 .9981 0 0)" opacity="1" fill="#fea906" fill-opacity="1" stroke="none" stroke-width=".981"/><path d="M48.333 52.467c1.308.982 37.535 1.088 37.734.066.084-.435-.302-.921-.766-1.09-2.212-.8-9.326-1.03-13.392-1.99-1.648-.388-3.005-.476-3.756-1.994-.513-1.038-1.016-1.625-.863-2.892.124-1.04-1.925-.896-1.752-.05.284 1.387-.144 2.03-.805 2.983-.632.912-1.87 1.57-2.91 1.955-2.714 1.006-4.648.76-7.799 1.059-1.718.163-2.93.098-5.02.972-.293.123-.952.77-.67.98z" fill="#fea906" fill-opacity="1" stroke="none" stroke-width="1" stroke-linecap="butt" stroke-linejoin="miter" stroke-opacity="1"/></svg>