<svg xmlns="http://www.w3.org/2000/svg" width="100" height="140" viewBox="0 0 100 140"><style>.a{stroke-width:1px;}</style><path d="m62.3 3.5c-1.9-0.2-3.9 0.3-5.5 1.2-1.2 0.7-2 2.1-2.6 3.3-0.3 0.6-0.5 2-0.5 2 0 0-1.5 1.1-2.1 1.9-0.6 0.8-1 1.7-1.4 2.8-0.6 1.7-1.2 3.8-1.5 5.5-0.5 2.3 0.6 5-0.7 7-0.3 0.4-0.9 0.4-1.3 0.7-1.5 1.1-4.1 3.6-4.1 3.6 0 0-1.3-1.2-1.4-1.9-0.1-0.6 0.5-1.8 0.5-1.8 0 0 0.7-1.9 0.4-2.8-0.4-0.8-0.9-1.1-2.3-1.5-1.4 0.1-4 0.6-6.2 2.1l-0.1 1.3 2.4 0.8c0 0 1.3 1.8 1.8 2.8 0.5 0.9 0.8 1.8 1.1 2.8 0.3 1.1 1.1 2.1 0.5 3.1-2.3 2.2-3.7 3.9-6.1 5.7-0.8 0.6-1 1-2.1 1.1-0.8-1-1.7-2.4-2.1-3.4-0.8-1.6-1.4-3.4-1.7-5.2-0.4-3-0.2-1.7 1-4.5 0.7-1.6 0.1-2.1 0.4-3.6-0.7-1-2.1-1.1-3.1-1.1-0.7 0-1.7 0.2-2.4 0.5-0.9 0.4-2.2 0.8-2.6 1.6-0.6 1.3 0.4 1.4 0.8 3.6 0.1 0.8 0.9 1.5 1.2 2.3 0.5 1.1 1.1 1.9 1.5 3.1 1.4 4.4 2.4 9.2 4.3 13.1 2.9 1.4 3.1 0.9 5.5 0.7 2.8-2 6.3-6.2 9.6-8.1 1.2-0.2 1 0.1 1.3 0.6 0.5 0.8-0.2 1.8-0.1 2.7 0.1 0.7 0.5 1.3 0.8 1.9 0.4 1.2 0.6 2.4 0.5 3.6-0.4 4-3.3 7.4-3.9 11.3-0.9 5.4-0.2 10.9 0.2 16.3 0.2 2.7 0.4 5.5 1.1 8.2 0.8 2.8 2.9 5.2 3.5 8.1 0.4 1.9-0.4 3.9 0.3 5.8 0.2 0.5 0.6 1.2 0.8 1.7 1.1 2.1 1.4 4.6 1.6 7 0.3 2.8-0.1 8.6-0.1 8.6 0 0 1.8 1.5 3.2 2.4-0.6 1.1-2.2 2-3.5 3.7-0.6 0.8-0.1 2.3 0.3 3.2 0.4 0.8 1 1.6 1.8 1.9 0.6 0.3 1.4 0.2 2-0.1 1.2-0.6 2-2 2.6-3.2 0.5-1.1 0.7-3.5 0.7-3.5l1.9 0.4-0.1 0.8 2.3 0.7c0 0-0.5 4.5-1 6.4-0.3 1.3-1.3 3.2-1.3 3.7-0.1 1.1-0.1 2.1 0.6 2.6 0.8 0.7 2.1 0.7 3.1 0.5 1.3-0.3 2.5-1.1 3.3-2.1 0.6-0.7 1.2-1.6 1.2-2.5 0-1.8-0.6-2-0.7-3-0.2-1.9-0.7-4 0-5.7 1.7-0.4 3.7-1.5 3.7-1.5 0 0-0.9-9.1-0.9-13.6 0-0.8 0.2-1.4 0.3-2.3 0-1.9-0.7-4-0.7-6 0-1 0.4-1.9 0.6-2.9 0.4-3.6 1.1-6 0.6-12.1 0-0.5 0.9-0.7 0.9-1.2-0.3-8.6-0.9-16.5-1.9-24.9-0.1-1.2-0.9-1.7-0.9-2.8 0-1.1 0.5-2 0.8-3.1 0.5-2.1-0.8-4.6 0-6.6 0.5-1.3 2-1.9 2.8-3 1.8-2.7 4-8.8 4-8.8 0 0 0.1-1.8-0.6-2.5-0.7-0.8-2.3-1-3.2-1.5-2.5-1.3-4.8-2.9-6.7-4.8-0.3-0.4-0.9-0.7-0.9-1.2 0-1.6 1.9-2.7 2.9-4 0.4-0.5 1-0.7 1.3-1.3 0.4-0.8 0.3-1.8 0.4-2.8 0.1-2.3-0.1-4.6-0.4-6.9C67.7 8.7 67.9 6.8 66.9 5.5 65.8 4.2 63.9 3.7 62.3 3.5ZM54.2 18.8c0.5-0.1 0.7 0.8 1.2 1 0.4 0.2 0.9-0.1 1.1 0.3 0.7 0.8 0.3 2.2-0.1 3.2-0.1 0.2-0.2 0.5-0.4 0.5-0.2 0-2.5 0.5-2.5 0.5 0 0 0-1.9 0-2.8 0-0.5-0.1-1.1 0-1.6 0.1-0.4 0.3-0.9 0.6-1zm1.4 68.3 1.8 0.6c0 0 0 2.1 0.2 2.8 0.6 2.8 1.3 5.6 2.1 8.4 0.3 1 0.8 2 0.9 3.1 0.1 1.5-0.6 4.5-0.6 4.5 0 0-2.9-5.8-3.6-8.9C55.5 94.2 55.6 87 55.6 87Z" class="a"/><path d="M72.9 23.7C63.4 25 18.1 31.2 4.9 33.1 3.8 31.8 4.5 30.5 4.5 30.5l68.1-9.1c0 0 1 0.9 0.3 2.3z" style="fill:#fea906;stroke-width:1px"/><path d="M41.3 28.7 42.1 25.4 41.3 24.7l-7.8 1.9 1.3 0.8c0 0 2.1 1.7 2.1 1.7 0.1 0 4.4-0.3 4.4-0.3z" class="a"/></svg>
