<svg xmlns="http://www.w3.org/2000/svg" width="76" height="128" viewBox="0 0 76 128"><style>.a{stroke-width:1px;}</style><path d="m27.3 1.8c-0.8 0-1.5 0.2-2.2 0.3-1.5 0.3-3.2 0.8-4.3 2-0.7 0.7-0.8 1.7-0.8 2.7 0 0.9 0.5 2.5 0.6 4 0 0.7-0.5 0.4-0.4 1.1 0.1 0.9 0.4 2.3 1.2 3 0.3 0.3 0.8 0.2 1.1 0.4 0.3 0.2 1 2 1 2.4 0 0.8-0.2 1.7-0.5 2.2-0.3 0.5-2.8 1.8-4.5 2.7-2.3 1.2-5.9 1.4-7 3.7-3 6-8.6 19.1-8.2 19.7 0.4 0.6 5.1 1.5 8 1 0.5-0.1 1.8-1.2 1.8-0.7 0.2 2.5 0.8 10.9 1.3 16.3 0.3 3 0.3 6.1 0.9 9 1 5.3 4 14 4.6 15.5 0.3 1-1.1 4.8-1.3 6.5-0.4 3.5-0.1 6.9-0.1 10.4 0 4.9 0.9 8.3 0.4 13.2-0.2 1.9-0.8 4.2-0.8 5.7 0 1.1 0.9 1.6 1.6 2.4 0.4 0.4 0.6 1.1 1.2 1.3 1.5 0.6 3.8-0.1 5.4-0.2 3.1-0.1 5.5 0 8.6-0.2 0.6 0 0.9-0.9 1.4-0.9 2.2 0 6.9 0.5 7.1-0.1 0.2-0.9-0.4-1.8-1-2.4-1.4-1.4-4.1-1-5-1.7-0.8-0.6-2-1.5-2.4-2.4-0.3-0.8-0.5-1.5-0.3-2.6 0.2-1 10.8-19.7 11-21 0.2-1.4-3.7-17-6-25-0.1-0.4 1-0.3 1-0.8 0.3-5.7-0.8-12.3-0.5-18.4 0-0.8-0.5-2 0.3-2.4 0.3-0.2 0.6 0.5 0.9 0.7 3.3 1.5 7.3 1.8 10.9 2.4 1.2 0.2 1.9 0.3 3 0 1.5-0.4 3.5-0.8 4.2-2.2 0.2-0.4 0.2-0.8-0.1-1-0.9-0.9-3-0.3-3.8-0.3-0.8 0-1.6-0.3-1.6-1-0.1-0.7 3.1-1 2.5-1.8-0.4-0.6-2.1-0.3-2.8 0-0.7 0.3-1 1.4-1.7 1.6-0.8 0.2-3.3-0.3-4.6-0.8-0.6-0.3-1.3-0.8-1.4-1.4-0.1-0.6 0.4-0.5 0.3-1.1-0.4-4.8-4.8-17.2-5.5-18-1.5-1.7-8.8-4.4-9.6-5.8-0.3-0.5-0.3-1.3-0.1-1.8 0.2-0.4 0.7-0.6 0.9-1.2 0.5-1.4 0.2-1.9 0.5-2.6 0.1-0.2 0.6-0.5 0.7-0.7 0.3-0.6 0.5-2.4 0.3-2.8C33.1 9.8 32.6 10.2 32.6 9.6 32.6 8.9 32.9 5.8 32.7 4.8 32.4 3.8 30.8 2.6 29.5 2.1 28.8 1.8 28.1 1.8 27.3 1.8Zm2.1 82.4c0 0 3.8 6.6 5.8 9.4-2 2.6-6.5 8.4-6.5 8.4 0 0 0.6-5.9 0.7-8.9 0.1-3 0-8.9 0-8.9z" class="a"/><path d="m72.3 36.8c-0.1 0-0.5 0.1-0.8 0.2-0.2 0.1-0.6 0.4-0.6 0.5 0 0.1 0.1 0.4 0.2 0.4 0.1 0.1 0.5-0.1 0.5-0.1l0.1 0.2c-0.4 0.2-1 0.5-1.7 0.8l-0.1-0.2c0 0 0.3-0.2 0.4-0.3 0-0.1-0.1-0.5-0.2-0.5-0.1 0-0.5 0.1-0.8 0.2-0.2 0.1-0.6 0.4-0.6 0.5 0 0.1 0.1 0.4 0.2 0.4 0.1 0.1 0.5-0.1 0.5-0.1l0.1 0.2c-0.7 0.3-1 0.4-1.7 0.8l-0.1-0.2c0 0 0.3-0.2 0.4-0.3 0-0.1-0.1-0.5-0.2-0.5-0.1 0-0.5 0.1-0.8 0.2-0.2 0.1-0.6 0.4-0.6 0.5 0 0.1 0.1 0.4 0.2 0.4 0.1 0.1 0.5-0.1 0.5-0.1l0.1 0.2c-0.7 0.3-1.1 0.5-1.6 0.7-0.2 0.5-0.6 1-0.6 1l-26.3 10.9-0.8-1.7c-1-2.1-3.5-4.6-6.1-3.9-2.6 0.7-3 4.3-5 5.3-2 1-8.8-3.2-13.1-1.1-4.2 2-8.1 8.5-3.3 17 4.8 8.5 12 8.4 16.3 5.9 4.7-2.7 3.2-8 5.1-9.1 1.7-0.9 3.4-0.5 5.4-0.4 2 0.1 3.5-0.2 3.5-1.3-0.1-1.9-3.4-0.3-3.8-3.6-0.2-1.7 2.4-3.5 2.4-3.5l26.8-11.5c0 0 1.6 0.1 2.2 0.5 0.5-0.2 0.8-0.3 1.5-0.5l0.1 0.2c0 0-0.4 0.2-0.4 0.3 0 0.1 0.1 0.5 0.2 0.6 0.1 0 0.5 0 0.8-0.1 0.2-0.1 0.6-0.3 0.6-0.4 0-0.1-0.1-0.4-0.2-0.4-0.1-0.1-0.5 0-0.5 0l-0.1-0.2c0.8-0.3 1-0.4 1.7-0.6l0 0.1c0 0-0.4 0.2-0.4 0.3 0 0.1 0.1 0.5 0.2 0.6 0.1 0 0.5 0 0.8-0.1 0.2-0.1 0.6-0.3 0.6-0.4 0-0.1-0.1-0.4-0.2-0.4-0.1-0.1-0.5 0-0.5 0l-0.1-0.2c0.6-0.2 1.2-0.4 1.6-0.6l0.1 0.2c0 0-0.4 0.2-0.4 0.3 0 0.1 0.1 0.5 0.2 0.6 0.1 0 0.5 0 0.8-0.1 0.2-0.1 0.6-0.3 0.6-0.4 0-0.1-0.1-0.4-0.2-0.4-0.1-0.1-0.5 0-0.5 0l-0.1-0.2c0.2-0.1 1.1-0.4 1.1-0.4 0 0 0.1-2.4-0.4-3.5-0.4-0.8-2.2-1.9-2.2-1.9 0 0-0.9 0.4-1.1 0.5l-0.1-0.2c0 0 0.3-0.2 0.4-0.3 0-0.1-0.1-0.5-0.2-0.5z" style="fill:#fea906;stroke-width:1px"/><path d="m3.6 45.9c0 0-0.2 2.5 0 3.2 0.2 0.9 2.7 2.8 4.2 3.9 1.8 1.2 4.1 2.2 6 3.3 1.7 1 3.7 1.9 4.7 2.9 0.4 0.4 0.1 1.2 0.3 1.8 0.3 0.7 0.8 1.4 1.4 1.7 0.8 0.4 1.7 0.3 2.5 0 0.8-0.2 1.2-0.6 2-1 0.3-0.1 1-0.5 1-0.9C25.7 60.3 26.4 59.8 26 59.1 25.5 58.2 24.2 57.7 23.2 57.1 22.5 56.7 21.7 56.5 20.9 56.2 20.1 55.8 18.9 55.3 18.5 54.9 18.1 54.6 14.8 51.9 13.1 50.2 12.3 49.4 10.9 47.8 10.9 47.8l-0.1-2z" class="a"/></svg>
