<svg xmlns="http://www.w3.org/2000/svg" version="1.1" width="162.667" height="145.333" viewBox="0 0 162.667 145.333"><path d="M117.676 1.111L88.016 50.72s.487 2.435-.223 3.261c-.446.519-2.002.446-2.002.446l-.89-1.557 2.818-8.379-4.672-2.15-.295-1.78.74-2.373-10.603-6.08-6.748 22.245h-8.157s-.314 3.822-.888 5.634c-.558 1.76-1.269 3.548-2.448 4.97-.946 1.14-2.21 2.053-3.558 2.669-1.38.63-4.45.963-4.45.963v2.596l-1.694.157s-.154-1.218-.784-1.487c-1.04-.443-5.83-1.103-7.605-1.784-2.036-.78-4.39-1.455-5.711-3.19-2.192-2.873-2.047-6.955-2.594-10.528-.18-1.175-1.072-2.727-.223-3.559.213-.208.592.093.889.074.48-.03 1.035.003 1.41-.297.51-.407.317-1.357.815-1.779.215-.183.466-.121.659-.328.172-.184.201-.407.305-.637.168-.368.369-.803.74-.963.435-.186.97.322 1.41.149.245-.096.432-.346.518-.594.35-1.005-.623-2.237-.148-3.19.254-.509 1.12-.472 1.41-.962.392-.663.223-2.3.223-2.3s1.265.427 1.853.223c.76-.262 1.653-.903 1.705-1.705.027-.405-.578-.593-.742-.964-.284-.643-.036-1.458-.369-2.077-1.292-2.402-3.426-4.56-5.934-5.634-1.364-.585-3.063-.758-4.449-.223-.326.126-.444.557-.74.742-1.219.764-2.975.486-4.078 1.408-1.282 1.073-2.001 2.765-2.447 4.375-.43 1.549.371 3.298-.149 4.819-.217.636-1.185 1.633-1.185 1.633s-1.645.147-2.3.591c-4.273 2.904-6.949 7.844-9.12 12.532-.792 1.708-.938 4.14-1.186 6.007-.753 5.662.22 11.008-.593 16.61-.798 5.496-1.535 11.05-4.301 15.867-.392.682-1.333.977-1.631 1.705-.6 1.464-.074 4.746-.074 4.746l12.16.074.297 21.801s-.324.933-.668 1.26c-.678.643-8.015 3.424-10.604 4.746-.434.222-.684.776-.74 1.26-.048.411.369 1.187.369 1.187l3.93-.074.593-1.113s4.742-1.48 7.194-1.78c1.104-.134 2.251-.245 3.336 0 2.243.507 6.228 2.967 6.228 2.967l4.227-.297.222-2.15s1.093-.156 1.631-.074c1.145.174 2.12 1.01 3.264 1.185 2.201.337 6.674-.297 6.674-.297s.213-1.533-.223-2.076c-1.159-1.445-3.675-.828-5.265-1.779-.901-.539-2.067-1.127-2.3-2.15-.105-.466.52-1.334.52-1.334l2.819 1.26 6.746-9.565 1.41.074s.185 4.099.666 6.08c.406 1.673 1.816 3.1 1.855 4.82.02.86-.727 1.563-.816 2.446-.102 1.009.297 3.19.297 3.19l6.08.148s.066-.544.295-1.559c11.975 1.765 15.802.26 15.97-.552.232-1.123-.574-1.401-1.877-2.279-1.892-1.275-7.174-.999-9.124-1.987-1.513-.767-3.88-2.597-3.485-3.707.43-1.211 4.39-1.114 4.746-2.002.435-1.08-6.009-27.512-7.156-28.78-1.649-1.822-15.058-3.372-16.572-4.44-.489-.346-.916-.844-1.112-1.41-.705-2.03 0-6.45 0-6.45l11.448.21.34-1.291s.447-.105.966-.18c.52-.073 1.594 1.274 1.594 1.274L61.45 94.79l-.314 1.363.84 1.05 3.652.345.431 13.797.957 2.07-.06 1.854s.134 1.613.59 2.03c.716.657 1.112 1.193 2.084 1.19 1.02-.003 1.62-.811 1.819-1.812.18-.906-1.29-1.893-1.29-1.893l1.778-17.267 2.517.105-1.363 21.076s-.446 3.428-1.469 4.72c-.428.539-.446 2.16-.446 2.16l-4.777 1.24s-1.644 1.244-1.091 1.819c.325.338 1.37 1.334 1.37 1.334s6.916-.974 7.356-.68c.404.268.735 1.257.735 1.257l3.984-.104-.104-8.18 2.516-22.755s1.617-.733 2.412-.524c1.269.335 2.936 2.622 2.936 2.622l.21 39.427 2.067.604s-.062 1.979.45 2.437c.526.472 1.42.52 2.097.315.497-.15.992-.554 1.154-1.047.28-.847-.525-2.623-.525-2.623l2.98-37.58 3.99-4.662 43.803-10.461-.222 30.623 1.187 1.187-.297 2.076s.851 2.102 2.742 1.78c.78-.133 1.39-1.068 1.485-1.854.097-.812-1.04-2.224-1.04-2.224l.446-1.04 2.447-32.773 9.416-2.967.817-23.8s-9.262-2.471-14.014-2.819c-8.366-.61-19.205-2.076-19.205-2.076s32.677-3.518 34.256-21.578c.63-7.208-15.274-14.533-15.274-14.533l-.222-1.26 10.38-12.606zm-88.418 99.287s2.487.68 2.83 1.73c.24.737-9.123 16.78-9.123 16.78l-4.719 3.88-2.045-.419-.165-21.781z" fill="#000" fill-opacity="1" stroke="none" stroke-width="1" stroke-linecap="butt" stroke-linejoin="miter" stroke-opacity="1"/><path d="M62.918 84.25l8.18-2.83.21-1.784-11.693-9.7-10.801.84-.157 1.048.052 1.101 5.715 7.708 6.187 6.396 2.202-.21z" fill="#fea906" stroke="none" stroke-width="1" stroke-linecap="butt" stroke-linejoin="miter" stroke-opacity="1" fill-opacity="1"/><path d="M66.483 83.254L53.428 70.933l-.157-.63 6.554-1.048 13.317 11.063-1.258 2.412z" fill="#000" stroke="none" stroke-width="1" stroke-linecap="butt" stroke-linejoin="miter" stroke-opacity="1" fill-opacity="1"/><path d="M48.027 71.667s5.933-.646 6.51-.184c.406.326 1.55 1.37 1.993 1.722.367.292-1.791.402-1.791.402l3.67-.158 1.625 2.989c.353.648-1.782.944-2.516 1.049-.105.314-2.78.157-2.78.157s-2.306.524-2.778.21c-.472-.315-4.614-1.94-4.719-2.15-.105-.21.786-4.037.786-4.037z" fill="#000" fill-opacity="1" stroke="none" stroke-width="1" stroke-linecap="butt" stroke-linejoin="miter" stroke-opacity="1"/></svg>