<svg xmlns="http://www.w3.org/2000/svg" width="95" height="139" viewBox="0 0 94.7 138.7"><style>.a{stroke-width:1px;}.b{fill:#fea906;stroke-width:1px;}.c{fill:#fff;stroke-width:1px;}</style><path d="m11.2 40.9c0 0 3.5 4.1 3.6 6.6 0.1 2.1-1.4 3.3-2.4 5.7-1.9 4.7-2.5 10.1-2.7 15.2-0.2 4.8-0.9 9.7-1 14.5-0.1 4.9-0.5 10.7-0.4 14.2 2.9 0.7 4.9 0.8 4.9 0.8 0 0-0.5 4-0.5 6.1 0.1 6.8 2.7 13.4 2.3 20.2-0.1 1.6-1 4.3-1.1 4.7-0.1 0.4-2.2 4.7-2.2 4.7 0 0-0.6 0.6-0.6 1 0 0.4 0.3 0.8 0.7 1 1.5 0.7 4.7-0.2 5-0.6 0.4-0.4 1-1.2 1.1-1.7 0.1-0.5 0.2-2 0.6-3.3 0.2-0.9 0.3-2.1 1.1-2.6 0.4-0.2 0.8-0.5 1.2-0.3 1.4 1 1.1 3.4 2.5 4.4 1 0.7 2.3 0.7 3.5 0.8 1.1 0 2.5 0.3 3.3-0.5 0.3-0.3 0.2-0.6 0-0.8-0.6-0.9-2.2-0.7-3-1.4-2.4-1.9-3.8-4.8-4.2-7.8-1-6.5 3-12.6 4.3-19 0.3-1.5 0.7-4.4 0.7-4.4 0 0 3.5 0.1 7.5-1.2-0.3-3.7 0.4-11.8-0.1-18.1-0.3-3.5-0.1-8-0.8-11.4-1.3-5.9-1.3-10.7-2.9-16.1-0.6-2.2-0.9-1.7-1.5-3.4-0.6-1.6-0.4-2.6 0.1-4.2 0.2-0.6 0.9-1.6 0.9-1.6 0 0 2.6 5.3 2.9 5.4 0.3 0.1 1.8 0.7 2.8 0.5 0.8-0.2 1.8-0.6 1.9-1.4 1-5 0.1-12.2-0.3-18.4 0-0.5 0.5-0.7 0.8-1.1 0.3-0.3 0.5-0.5 0.7-1 0.5-1.2 0.6-2.4 0-3.6-0.7-1.5-1.8-3.2-3.4-3.3-1.2-0.1-3 2.1-3 2.1v4.2l1.3 3 0.1 4.3c0 0-0.5-3.1-1.4-4.3-0.8-1-2.1-1.3-3.1-1.9-0.3-0.2-0.8-0.3-1-0.6-0.3-0.5-0.3-1.1 0-1.6 0.5-0.9 1.9-0.8 2.4-1.6 1.1-1.6 0.9-3.8 1.3-5.7 0.2-1.2 0.5-2.4 0.4-3.6C33.4 11.9 33 9.9 32 8.3 31 6.9 29.4 5.9 27.8 5.2 26.5 4.6 25.1 4.1 23.7 4.2c-1.4 0.1-2.8 0.6-4 1.5-1 0.8-1.7 1.9-2.2 3.1-0.8 1.8-0.8 3.5-1.6 5.3-0.3 0.7-0.7 1.6-1.3 2.1-0.8 0.7-1.6 1.3-2.2 2.2-0.6 1-0.6 2.1-0.4 2.8 0.1 0.3 1.1 1 1.4 1.7 0.2 0.4 0.3 0.9 0.1 1.3-0.6 1.3-2.4 1.5-3.3 2.5-1 1.2-1.5 2.7-2 4.2C6.4 36.5 5.2 42.4 4.5 48.3 3.6 54.6 4 61.1 3.5 67.3c-0.1 1.3-0.4 2.3-0.8 3.5-0.3 0.9-0.6 1.8-0.7 2.7-0.1 0.7 0.1 1.6 0.4 2.3 0.3 0.8 0.3 1.6 0.9 2.1 0.4 0.4 1.3-0.3 1.2-0.8-0.6-2.8 0.8-3.5 0.9-3.7 0.3 0 0.1 1.3 0.7 0.9C6.7 74 6.7 70.9 6.5 69.5 6.4 68.8 6.2 67.8 6.1 67 5.9 63.3 7 59.8 7.6 56.1 7.9 53.8 7.9 51.1 8.5 48.9 9.2 46.2 11.2 40.9 11.2 40.9Z" class="a"/><path d="m57.3 132.8c1.7 1 3.5 1.6 5.4 1.9 1.5 0.3 3.2 0.2 4.7-0.1 0.9-0.2 1.6-0.6 2.4-0.8 0.5-0.1 1.7-0.4 1.7-0.4l0.2 1.2 6.8-0.1c0 0 0.1-2.3-0.1-3.4-0.2-1.2-0.5-3.2-0.7-3.6-0.2-0.4-0.4-1.4-0.2-1.7 0.3-0.4 0.8-0.1 1.1-0.6 0.3-0.4 0.5-9.2 0.5-9.2 0 0 4 7.2 5.5 11 0.5 1.3 0.9 2.6 1.1 4 0.2 1.5-0.9 2.5-2 4-0.4 0.5-0.3 0.9 0 1.9 0.3 0.9 1.9 0.6 2.8 0.5 1.6-0.1 3.4-0.7 4.9-1.8 1.3-0.9 1.8-2.6 2.3-4.1 0.7-2.5 1-2.6 0.7-5-0.3-2.1-1.1-6.1-2-9.1-1.2-3.9-3.6-7.4-4.4-11.4-0.3-1.6 0-3.2-0.3-4.8-0.4-2-1-4.1-2-5.9-0.5-1-1.9-1.5-1.9-2.6 0-3.3-0.1-6.5-0.1-9.8 0-2.6-0.3-7.2 0.1-7.9 0.2-0.5 3.5-2.9 3.7-3.4 0.2-0.5-1.7-9.8-3.4-14.4-0.6-1.7-2.5-6.3-3-8.1-0.1-0.5 1-0.9 1.5-1.4 0.5-0.5 0.3-6.8 1.3-12.7 0.4-2.8 0.3-6.3-0.6-9-0.4-1.3-1-2.8-2.1-3.6-1.3-1-3.3-0.4-4.7-1.3-1.1-0.7-1.9-1.8-2.5-2.9-0.2-0.3-0.4-1.1-0.4-1.1 0 0-0.2-0.5-0.1-0.7 0.2-0.4 0.7-0.5 0.8-0.9 0.3-0.9 0.4-1.8 0.4-2.8 0-0.5 0.2-0.9 0.3-1.4 0.1-0.6 0.4-1 0.6-1.6C75.9 8.9 75.7 7.6 75.4 7 75.1 6.4 73.4 4 71.8 2.8 70.6 2 69.3 1.4 68 1.4c-0.9 0-2 0-2.7 0.6-0.4 0.4-0.7 0.6-0.9 1.1-0.4 0.9-0.5 1.6-1.1 2.4-0.2 0.3-0.4 1.2-0.5 1.5-0.3 0.6-0.7 1.9-0.6 3.1 0 0.4 0.3 0.7 0.3 1.1-0.1 0.5-0.6 0.9-0.7 1.4-0.1 0.5 0 1.6 0.1 2.4 0.4 2.1 2.5 5.6 2.5 5.6l1.1 1.8-0.6 5.4c0 0-3 3.8-4.1 4.4-1.1 0.6-2.1 1.3-2.8 2.3 0.2 0.9 0.7 1.6 0.7 1.6 0 0-0.9 2-1.1 3-0.4 2 0.1 4.1-0.3 6.1-0.1 0.6-0.6 1.8-0.6 1.8 0 0-0.9-0.8-1-1.1-0.1-0.4-0.3-2.2-1.1-2.3-1.2-0.2-2-1.1-2.8-2.1-0.5-0.6-1.5-0.9-1.9-0.6-0.5 0.4-0.7 2.4-0.7 3 0 0.7 0.6 2 1.1 2.5 0.8 0.8 1.2 1.3 1.6 2.2 0.3 0.8 0 1.7 0.1 2.5 0.1 0.6 0.2 1.3 0.6 1.8 0.3 0.3 0.8 0.3 1.3 0.4 1.1 0.2 1.4 0.3 3.3 0.3 0.1 4.2-0.2 22.3 0.2 22.6 0.4 0.3 3.7-0.2 4 0.1 0.3 0.4-0.2 5.2 0.2 7.8 0.7 4.9 2.2 9.6 3.8 14.2 1.2 3.4 3.6 6.3 4.2 9.8 0.9 5.4-0.2 11-0.9 16.4-0.1 1.1-0.2 2.2-0.7 3.1-0.8 1.5-1.7 2.4-3.3 3.1-1.1 0.5-2.2 0.5-3.4 0.5-1.1 0-2.8-0.5-3.7 0.1-0.3 0.3-0.7 1-0.3 1.2z" class="a"/><path d="m37.4 130.3-0.1-104.7 4.2 1.8 2.2 0 0.4-1-1.7-1.7c0 0-6.7-3.8-9.1-5.3-0.7-1.3-0.9-2-1.8-2.4-1-0.4-2.5 0-3.2 0.8-0.6 0.7-0.8 2-0.3 2.9 0.3 0.7 0.6 1 1.9 1.3l1.7 0.3 3.6 2.2-0.2 105.7c0 0-4.5 0.5-6.7 1.3-1.3 0.5-3.6 0.9-3.5 2 0.1 1 2.7 1.5 4.1 1.8 2.3 0.4 4.3 0.5 7.5 0.4 2.6 0 5.3-0.3 7.2-0.6 1.9-0.4 3.4-1 3.5-1.8 0-0.8-1.5-1.4-3.2-1.9-1.7-0.4-6.6-1.2-6.6-1.2z" class="b"/><path d="m64.9 30.1c0 0 3.1-4.8 5-6.9 1.3-1.5 4.4-4.2 4.4-4.2l-0.8-1.8c0 0-2.1 1.5-3.2 2.2-1.6 1.1-4.9 3.1-4.9 3.1 0 0-0.7 0.9-1 1.4-0.6 1.2-0.7 2.7-1.3 3.8-0.4 0.7-1.3 1.5-1.6 1.7-0.3 0.2-1.7 0.3-1.7 0.3 0 0-2.5 3.4-2.5 3.9 0 0.4 0.5 0.9 0.7 1.1 0.2 0.2 3.1-2.6 5.2-4.1 0.4-0.3 1.2-1 1.2-1z" class="c"/><path d="m56.2 48c0 0-0.1 1.6-0.6 2.3-0.4 0.5-1 0.8-1.6 0.9-0.5 0.1-1.1 0-1.4-0.4-0.3-0.4-0.3-1.6-0.1-1.7 0.2-0.1 0.6 0.4 0.9 0.4 0.5 0 1-0.2 1.4-0.6 0.4-0.3 0.6-1.2 0.8-1.3 0.2-0.1 0.4 0.3 0.5 0.5z" class="c"/><path d="m55.5 31c0.5 0.3 1.3-0.3 1.3-0.3l4.5-8.2 1.4-2.7c0 0 0.8-0.4 1.4-0.8 0.4-0.4 0.6-1.1 0.6-1.7 0-0.7-0.3-1.3-0.9-1.7-0.7-0.5-1.9-0.6-2.7-0.2-0.8 0.4-1 1.4-0.9 2.1 0.1 1-0.2 1.6-0.2 1.6l-0.7 1.5-4.3 9.4c0 0 0 0.8 0.5 1.1z" class="b"/><path d="m55.9 24.5c-0.1-0.5 0.3-1.3 0.6-1.9 0.2-0.3 0.5-0.8 0.8-1.1 0.1-0.2 0.5-0.7 1-0.8 0.8-0.1 1.3 1.9 2.5 1.7 1.1-0.2 0.8-0.7 1.1-1.2 0.2-0.3 0.4 0 0.5 0.2 0.9 1.1 0.2 2.8 0.4 4.2 0.1 0.7 0.4 2.1 0.4 2.1 0 0-1 1.4-1.7 1.8-0.5 0.3-1.7 0.2-1.7 0.2 0 0-1-1-1.4-1.6-0.9-1.1-2.3-2.8-2.5-3.6z" class="a"/><path d="m39.4 22.8c-0.1 0-0.7 0.4-1.1 0.4-0.9 0.1-2.4-0.7-2.6-0.8-0.2-0.1-1.3-0.7-1.4-1.4 0-0.3 0.4-0.6 0.6-0.8 0.5-0.2 1.4 0.3 1.5 0.4 0.2 0.1 3.2 2.1 2.9 2.2z" class="a"/><path d="m33.7 25.5c0 0 0.1-1.6-0.7-2.7-0.2-0.2 0.1-0.4 0.3-0.5 0.3-0.1 0.7 0.1 0.9 0.4 0.5 0.7 1 1.9 1 1.9z" class="a"/></svg>
