<svg xmlns="http://www.w3.org/2000/svg" id="svg5693" width="68" height="149" viewBox="0 0 68.1 149.4"><style>.a{fill:#fea906;stroke-width:1px;}.b{stroke-width:1px;}</style><metadata id="metadata5699"/><defs id="defs5697"/><g id="g6292" transform="matrix(0.13972761 0 0 0.13972761 -0.73384943 -1.5099861)"><path id="path6251" d="m403.4 441.4c-0.7 0-1.3 0.1-1.9 0.4-5.5 3.5-1.4 11.6-2.7 18.5-0.9 4.4-5.6 7-9.8 10.3-4.3 3.3-13.4 8.1-13.4 8.1 0 0-1.3-3.5-4.7-5.7-3.3-2.2-8-3.8-8-3.8l-0.9 4.9 8.4 8.6c-0.3 0.3-0.5 0.5-0.8 0.8-5.1 4.9-14.7 17.2-24.6 30.1-3.1 4-6.9 10.2-10.8 16.7-3.5-0.5-8.2-1.3-8.2-1.3l1.4 3 4.8 1.7c-5.2 9-10.4 18.3-14.1 24.7-1.2-0.8-2.7-1.6-3.8-2.2 0.1-0.1 0.8-1.1 0.8-1.1l-1.7 0.6c-0.1-0.1-0.5-0.3-0.5-0.3l-0.3 0.6-25.7 9.6-31.8-14.3-7.1 10.4c0 0 5.5 51 5.7 51.9 0.2 0.9 5.4 0.3 5.4 0.3 0 0 9.3-12.6 10.7-13.1 1.4-0.5 6.3 5.7 7.4 5.5 1.1-0.2 5.4-7.3 6.9-8.8 0.8-0.8 1.3-2 1.8-3.2 2.6 1.8 6 3.5 6.3 3.7-5.7 10.1-14.2 24.5-17.9 29.4-5.6 7.6-9.4 8-9.4 8 0 0 0 42 3.3 43.5 3.3 1.6 10-0.2 17.2-3.3 7.1-3.1 14.1-9.2 17.4-13.8 3.3-4.7 39.6-54.5 54.4-76.9 14.8-22.4 34.6-43.9 41.8-50.2 7.3-6.3 17.2-11 22.6-12 5.4-0.9 8.2-1.4 12.2 0.8 2.6 1.4 10.3 10.7 15.5 7.7 5.2-3 2.5-24.9-11-50-12.3-22.7-28-39.5-34.9-39.9zm-93.5 121.2 3.9 2.4c0 0 0.4-0.3 1.1-0.8-0.4 0.6-0.8 1.2-1 1.6-0.6 0.8-1.5 2.1-2.4 3.1l-3.7-3.3c1-1.4 1.1-1.6 2.1-2.9zm-7.7 10.7 3.6 3.1c-3.9 5.2-7.6 10.2-8 11.4-0.1 0.5-1.2 2.5-2.6 5.1l-2.7-1-5.4-0.2c0.1-0.3 0.3-0.5 0.5-0.7 1.4-1.9 3.3-6.2 3.9-6.2 0.6 0 1.9 2.2 2.7 1.7 0.8-0.5 6-10.6 7.4-12.5 0.1-0.1 0.5-0.7 0.6-0.8z" class="a"/><path id="path5703" d="m286.1 10.8c-6.3 1-22.5 0.5-26 5.5-1.1 2-8 3.1-10.5 4.2-14.4 7-22.1 17.6-26.8 33.7-2.1 13.4-3.5 15.8-4.9 27.2-0.7 1.8 3.3 6.5 2.9 8.3-0.4 1.8-1.1 7.8 0.7 9.6 1.8 1.8 3.6 10.5 4.5 15.4 0.9 4.9-8 3.1-12.1 7.1-4 4-14.7 15.6-35.3 25.9-20.5 10.3-51.7 50.4-56.6 57.5-4.9 7.1-19.7 31.3-28.2 54.1-8.5 22.8-17.4 81.3-18.3 87.9-0.9 6.7-14.6 96-25.8 126.4-11.2 30.4-14.3 76.2-11.6 78.9 2.7 2.7 13.6 5.1 17.1 6.5 3.6 1.3 39.9 147.6 40.8 155.7 0.9 8-54.5 201.3-58 209.8-3.6 8.5-0.4 33.5-3.6 38.4-3.1 4.9-6.7 8.5-8.5 17.9-1.8 9.4-8.5 19.2-13.8 29.9-5.4 10.7-8 32.1-6.3 36.6 1.8 4.5 16.5 7.1 33.9 8.5 17.4 1.3 29.5-1.3 32.6-1.3 3.1 0 0.4-3.1 1.3-5.8 0.9-2.7 8.9 0.4 33.5 0.9 24 0.4 40.2-4.6 44.6-5.7-2.5 10.1-4.5 19.9-4 22.7 0.9 5.4 16.5 8.5 28.1 10.7 11.6 2.2 33.9 2.2 35.7 2.2 1.8 0 2.7-4 4.5-5.4 1.8-1.3 14.3 3.1 33.9 5.4 19.6 2.2 44.6-0.9 65.2-2.2 20.5-1.3 31.3-5.4 33.5-10.3 2.2-4.9-3.1-10.7-8-17-4.9-6.3-12.1-3.6-26.3-5.8-14.3-2.2-27.2-12.1-33.9-15.6-6.7-3.6-23.7-16.5-23.7-18.3 0-1.8 11.6-2.2 14.7-7.1 3.1-4.9 13.4-129.9 13.4-129.9 0 0 4.3-96 3.1-113.1-1.3-17-43.9-211.9-44.5-213.5-0.7-1.6-3.5-31.4-2.4-32.5 1.1-1.1 20.4 34.8 22.4 35.5 2 0.7 19.9-4.9 34.6-11.6 14.7-6.7-2.4-37.2-11.1-39.9-8.7-2.7-20.2-36.8-21.6-38.1-1.3-1.3-9-25.1-7.5-28.3 1.6-3.1 12.5-1.8 37.1-2.5 24.6-0.7 40.8-4.5 40.8-4.5l25.4-60.7c0 0-30.4 0.9-31.7 0-1.3-0.9-33.9-96.7-35.7-103.1-1.8-6.5-8-29.9-8-32.4 0-2.5-2.2-11.6-2.2-15.4 0-3.8 7.1-15.2 7.4-19.6 0.2-4.5-4.7-9.8-4.5-12.9 0.2-3.1 6.5-4 9.8-6.9 3.3-2.9 4.2-6.5 5.1-7.1 0.9-0.7 8.7 0 13.6 3.1 4.9 3.1 17.3 6.7 19.9 6 2.7-0.7 5.7-2 7.5-5.8 1.8-3.8 3.1-10.9 3.8-12.7 0.7-1.8 3.6-4 3.6-5.6 0-1.6-4.5-7.1-3.8-9.2 0.7-2 6.5-1.6 6.5-4 0-2.5-2.7-6.9-2-8.9 0.7-2 9.6-0.7 10.3-4 0.7-3.3-0.9-7.4-3.3-11.8-2.5-4.5-6.7-14.5-6.7-17.4 0-2.9 5.6-4.2 6.7-6.7 1.1-2.5-0.4-6.2-1.6-12.7-1.1-6.5-2-18.1-4.9-24.1-2.9-6-3.3-5.4-2.7-7.4 0.7-2 0.9-4.7-4.2-9.2-5.1-4.5-3.6-7.4-8.9-11.4-5.4-4-20.3-7.8-27.2-9.6-6.1-1.6-16-4.3-21.7-4.4zm-6.2 246.4c0 0 13.2 25.9 17 38.2 3.8 12.3 24.1 65.8 23.2 67.9-0.9 2-11.8 2.2-30.8-0.4-19-2.7-19.4-1.3-20.8-2.9-1.3-1.6-0.9-19.9-0.2-21.2 0.7-1.3 6-13.2 6.3-17.6 0.2-4.5 5.4-63.8 5.4-63.8zm-120.1 652.7c0 0-0.9 36.2-0.9 42.4 0 6.3 5.8 14.3 8.5 17.4 2.7 3.1 5.8 17.4 4.9 23.2-0.9 5.8-9.8 19.2-13.4 27.2-0.4 1-0.9 2.3-1.5 3.9-0.8-2.6-1.8-5.1-3-6.6-3.6-4.5-20.5-1.8-28.1-3.6-7.6-1.8-12.5-8.9-13.8-14.3-1.3-5.4 3.6-4.9 18.3-27.7 14.7-22.8 29-62.1 29-62.1z" class="b"/><path id="path6253" d="m346.5 142.4c-1.4 0.2-3.6 2.2-3.6 2.2 0 0 3.3 6.5 7.3 9.9 3.9 3.5 15 13.1 24.3 17.8 9.3 4.7 21 10.7 21.8 10.7 0.8 0 2.5 0.8 3.3 1.6 0.8 0.8 16.4 10 25.7 14.5 9.4 4.5 16.7 3.8 22.3 6 5.6 2.2 15.4 6.7 18.5 18.8 2 7.6 0.6 14.3-1.4 19.5-1.4-0.7-6.5-3.1-6.9-3-0.5 0.1-2.4 2.1-2.3 2.8 0.2 0.8 3.5 1.1 3.6 1.8 0.1 0.7-9.6 11.7-10.7 13-1.1 1.3-8.8 13.8-11.2 17-2.3 3.1-26.8 33.8-26.8 33.8 0 0-1.2 1.2-0.6 2.1 0.7 0.9 1.8 1.9 1.3 2.7-0.5 0.9-13.2 19.1-14 20.6-0.8 1.5-6.1 7.5-8.1 9.9-2 2.5-5.5 4.1-7.7 6.9-2.2 2.8-8.5 12.3-8.5 12.3l4.7 9c-14.6 20.8-36.5 52.1-38.3 54.4-2.5 3.1-46.2 67.2-47.3 67.6-1.1 0.4-4.5-2.9-6.9-2.2-2.5 0.7-7.1 5.5-9.2 7.9-2 2.5-4.6 7.4-4.1 10.9 0.4 3.6 4 4.5 4 6 0 1.6-3.6 6.8-5.5 9.3-1.9 2.5-2.9 6.4-5.5 7.1-2.6 0.8-5.8 0.6-6.8 1.4-0.9 0.8-3.8 7.3-3.6 8.4 0.2 1.1 3.6 2.2 3.3 3.5-0.3 1.3-3.8 6.3-3.8 6.3l18.8 42.3c0 0 23-25.6 24.3-26.2 1.3-0.6 17.4-10.7 18.3-13.3 0.9-2.5 6-6.9 6-8.5 0-1.6-0.3-3.2-0.3-3.2 0 0 8.8-12 9.5-13.6 0.6-1.6 23.7-41 32.8-55.2 9.2-14.2 27.1-41.4 30-46.4 2.8-5.1 19.9-54.6 20.2-56.8 0.3-2.2 0.6-5 6.6-14.5 6-9.5 20.8-34.1 22.7-36.9 1.9-2.8 8.7-10.1 10.3-12.3 1.6-2.2-1.3-6.3-0.3-7.3 0.9-0.9 4.6-1.1 6-3.5 1.4-2.4 1.3-3.5 0.9-5.4-0.3-1.9-2.5-2.1-2.7-3.5-0.2-1.4 11.5-19.6 12.9-20.5 1.4-0.9 8.5-13.3 9.3-14.8 0.3-0.7 1.6-2.9 2.8-6.9 3-3 7.7-7.8 8.2-9 0.8-1.9 7.4-11.8-7.3-31.1-14.7-19.3-40.9-22.1-43.9-22.4-3-0.3-5.5-1.7-6.2 0.2-0.5 1.4-0.2 4.1 0 5.6-5.3-1.2-10.5-2.6-13.9-4.3-6.7-3.3-16.3-8.9-16.5-9.6-0.2-0.7-0.1-2.1-0.7-2.4-0.6-0.3-26.6-25-29.3-25.8-2.7-0.8-24.8-5.5-26.2-5.4zm91.6 44.6c1.4-0.1 3.9 0.7 4.7 0.9 0.8 0.2 0.5 2.6 0.3 3.8-2-0.3-4.2-0.7-6.6-1.2 0-1 0.2-3.1 1-3.4 0.1-0.1 0.3-0.1 0.5-0.1zm11.8 2.4c1.8 0 10 2.2 17.1 6.4 7.6 4.5 11.8 10.6 11.5 11.6-0.1 0.3-0.5 0.5-0.9 0.7-8-9.5-21.6-14-28.4-15.4-0.2-1.1-0.3-3 0.4-3.3 0.1 0 0.2 0 0.3 0zm32 22.5c0.2 0 0.3 0 0.4 0 0.9 0.2 6.1 13.6 5.9 18-0.2 3.1-2.6 5.3-4.2 6.2 0.3-4.2 0.3-9.1-0.5-14.9-0.4-3.4-1.6-6.5-3.1-9.2 0.5-0.1 1.1-0.1 1.5-0.1zm-20.3 34.2c0.2 0 0.4 0.1 0.7 0.3 0.3 0.3 0.4 0.7 0.6 1.3-0.6 1.3-1.3 2.4-1.8 3.4-0.5 0.9-2.5 3.9-4.9 7.5-1.1-0.2-2.3-0.6-2.1-1.5 0.3-1.6 0.9-3.5 3.3-6.5 2-2.4 3.3-4.4 4.3-4.4zm-11.3 14.6c1.2 0.1 2.3 1 2.9 2-9.1 13.3-24.1 34.4-33.5 47.9-1.2 0.2-2.5 0.2-3.2-1.1-1.3-2.3 0.3-3.5 1.2-4.8 0.9-1.3 13.3-16.5 16.3-20.6 3-4.1 14.4-23.4 16.3-23.3zm-39.6 60.3c0.5 0.1 0.9 0.4 1.1 0.9-0.1 0.2-0.5 0.7-0.5 0.8-2.2 3.6-19.6 29.7-19.6 29.7 0 0 0 0 0 0-1.4 0-2.6-0.1-2.5-0.7 0.1-1.6 1-3 3.2-5.7 2.2-2.7 5.2-8.6 9.2-13.8 3.9-5.2 5.6-9.7 7.5-10.7 0.7-0.4 1.3-0.5 1.8-0.5z" class="a"/><path id="path6275" d="m354.6 364.2c0 0 4.6 0.9 6.6-0.1 2-1 2.6-5.5 4.6-6.1 2-0.7 9.6-1 10.9 2.1 1.3 3.1-1.2 5.8 0.2 7.6 1.5 1.8 6.3 6 19.1 7.3 12.8 1.2 19.2 0.1 21.7 2.1 2.5 2 3.2 6.5 2.5 8.7-0.8 2.2-3.9 5.6-5.2 6-1.3 0.4-9.9 0-10.3 2-0.3 2 8.1 8.8 8.6 11.2 0.4 2.3-0.4 8.8-2.2 9.9-1.8 1.1-5.6 0.4-6 1.9-0.4 1.5 1.1 2.6 0.7 5.1-0.4 2.6-1.8 5.8-3.9 6.7-2.1 0.9-6.5-1.8-7.1-1-0.7 0.8 0 2.8-2 3.9-2 1.1-7.7 3-16.4-0.1-8.7-3.1-14-8.4-16.1-7.9-2.1 0.4-2 1.9-3.6 2-1.6 0.1-25-0.4-37.3 0.7-12.3 1.1 6.8-40.7 8.1-41.6 1.3-0.9 27.2-20.3 27.2-20.3z" class="b"/></g></svg>
