<svg xmlns="http://www.w3.org/2000/svg" width="84" height="149" viewBox="0 0 84 149.3"><style>.a{stroke-width:1px;}.b{fill:#fea906;stroke-width:1px;}</style><path d="m37.4 35.2c0 0-0.7-1.5-1-2-0.3-0.5-1.6-1.9-1.9-1.9-0.3 0-1.8 0.2-2 0.4-0.2 0.2-0.5 1-0.7 1.2-0.3 0.2-1 0.2-1.1 0.3-0.2 0.2-0.2 0.8-0.5 1-0.2 0.2-0.6 0.5-0.5 0.9 0.1 0.4 0.6 0.7 1.4 1 0.8 0.2 2.1 0.8 2.4 1 0.3 0.2 3.9-1.8 3.9-1.8z" class="a"/><path d="M74.5 1C73.3 1 72.3 1.4 72 1.5 71.5 1.7 55.4 11.8 50.8 14.7 49.6 14 48.2 13.8 47.1 14.4 45.7 15.1 45.4 16.8 45.4 18.2 38.2 22.8 27.3 30.1 27.3 30.1 27.3 30.1 26.7 29.6 26.5 29.7 26.2 29.9 26.5 30.7 26.7 31.1 27 31.7 27.4 32 27.7 31.8 28 31.6 27.8 31 27.8 31 27.8 31 34.2 26.9 37.8 24.7L38.8 26.3C34.2 29.4 27.7 33.5 22.7 36.6 14.1 42 10.2 44.2 8.8 45 7.5 45.9 5.4 47.9 6.5 49.8 7.7 51.9 9.9 50.9 12.1 49.6 15.5 47.8 21.7 43.6 21.7 43.6 21.7 43.6 45.3 28.8 50.5 25.6 52.2 26.4 53.7 26.9 55 25.9 55.7 25.3 56 24 55.8 22.3 60.8 19.2 76.9 9.2 77.6 8.7 78.3 8.1 80.5 6 78.4 3.1 77.2 1.4 75.8 1 74.5 1zM74 2.6C75 2.5 76.2 2.9 77 4.1 78.4 6.1 76.5 7.1 76.2 7.5 76.1 7.7 66.5 13.7 55.5 20.7 55.2 20 55 19.2 54.6 18.5 53.9 17.4 53.1 16.4 52.2 15.6 62.2 9.3 71.9 3.2 72.4 3 72.8 2.8 73.4 2.6 74 2.6zM45.6 19.8C45.6 19.8 45.6 19.8 45.6 19.8 45.6 19.8 45.9 21.3 44.6 22.4 44.1 22.8 42.1 24.2 39.6 25.8L38.6 24.1C41.2 22.5 42.2 21.9 45.6 19.8zM47.9 24.8C48.1 24.8 48.4 24.9 48.7 24.9 46 26.7 44.6 27.5 41.9 29.2L40.8 27.6C43.4 26.1 45.3 25.1 46 25 46.7 24.9 47.3 24.8 47.9 24.8zM39.9 28L41.1 29.7C36.9 32.4 35.9 33 32.4 35.2L31.2 33.2C34.4 31.2 37.5 29.4 39.9 28zM30.6 33.5L31.9 35.5C25.4 39.5 17.7 44.4 15.3 45.9 15 45.4 14.2 44.4 13.8 43.8 17.3 41.6 22.3 38.5 28 35.1 28.9 34.5 29.7 34 30.6 33.5zM13 44.3L14.4 46.5C14 46.7 11.3 48.4 11.2 48.5 10.1 49.1 8.5 50.1 7.8 49 7.1 47.6 9.8 46.3 9.8 46.3 9.8 46.3 11.8 45 13 44.3z" class="b"/><path d="m45.4 98.7c0 0 0.9 6.7 0.9 10.2 0 3.5-1.1 17.7-1.1 20.3 0 2.6-0.1 3.3 0.3 4.5 0.4 1.2 2.6 5.2 2.4 5.8-0.2 0.6-1.8 1-1.7 1.2 0.1 0.2 0.3 0.5 1 0.9 0.6 0.4 1.3 0.3 2.6 1.1 1.1 0.7 1.8 1.6 1.6 2.6-0.2 1-2.8 1.9-3.6 1.9-0.9 0-2.7 0-4-0.4-1.3-0.4-2.9-1.7-4.3-2.2-1.4-0.4-1.8-0.4-2.1-0.2-0.3 0.2-0.2 1.1-0.4 1.2-0.2 0.1-5.5-1.2-5.9-1.7-0.4-0.5 0.7-2.9 0.8-3.4 0.1-0.5-1.1-2.7-1-4.7 0.2-1.9 1.5-5.2 1.5-6.3 0-1.1-0.3-10.2-0.3-10.2 0 0-3.6 3.8-4.8 4.8-1.2 1-2.6 2.4-3.4 3.7-0.8 1.2-1.7 2.8-2 3.8-0.3 1-0.6 4.8-1 5.5-0.4 0.7-1.6 0.5-1.7 0.9-0.1 0.4 0.2 1.6 0.5 2.1 0.3 0.5 1.2 1.6 1.3 2.3 0.2 0.7-0.5 2.5-0.9 3-0.4 0.4-1.8 0.9-2.5 0.6-0.7-0.3-3.3-1.6-4.1-3-0.9-1.4-1-3.1-1.5-3.7-0.5-0.6-2.4-1.3-2.7-2.1-0.3-0.8-1.6-3.4-1.7-5.4-0.1-2 1.1-3.7 1.3-4.2 0.3-0.5 3.1-3.4 4.4-5 1.2-1.5 2.2-4 3.6-5.3 1.3-1.3 6.6-4.7 7-5.7 0.4-0.9-0.5-8.2-0.3-11.9 0.2-3.7 1-6.2 0.7-7.4-0.3-1.2-4.4-3.1-4.6-4.6-0.2-1.5 1.8-4.6 2.6-9.4 0.9-4.8 0.7-6.6 0.3-7.8-0.4-1.1-9.1-13-9.4-16.9-0.3-3.9 1.8-6.3 2.3-6.8 0.5-0.5 1.9-0.9 2-1.2 0.2-0.4-0.3-3.4-0.3-3.9 0.1-0.5 1.2-1 1.2-1 0 0-1-1.7-1.4-1.9-0.4-0.2-2.6-1-2.9-1.2-0.3-0.2-4.1-3.4-4.7-5.7-0.5-2.2-0.3-5.2 0.4-6.7 0.6-1.2 3.4-3 5.2-3.4 1.8-0.4 4.3-0.8 5.3-0.5 1 0.3 1.2 0.9 1.7 1.2 0.5 0.4 0.3 1.2 0.6 1.6 0.4 0.4 1.4 1.5 1.5 1.7 0.9 1.2 2.1 1.2 2.6 2.2 0.3 0.9-1 0.9-1 1.4 0.1 0.5 0.8 0.6 0.8 1.2 0 1.6 1.7 2.1 1.1 3.4-0.1 0.7-3.1 2.2-2.9 3.2 0.1 0.7 0.6 2.2 1.5 2.7 0.9 0.5 6.7 0.2 7.7-0.2 1-0.4 1.1-1.9 0.5-2.2-0.6-0.4-0.6-0.3-1.3-0.7-1-0.6 3.5-2.8 3.8-2.1 0.2 0.5 0.2 0.4 0.4 0.8 0 0 2.5-2.4 2.5-3.1 2.2-1.6 3.1-2 4.7-0.6-0.3 0.7-1.5 2.5-1.5 2.5 0 0-0.5 1.1-0.4 1.5 0.1 0.4 0.7 0.9 1.3 1.1 0.6 0.2 1.3 0 2.3 0.1 1 0.1 2 1.2 2.9 1.5 0.9 0.3 8.1-0.2 8.2 5 0.1 5.2-7.3 4.4-9.2 4.6-1.9 0.2-2.4-0.2-3 0.3-0.6 0.4-0.8 3-1.2 3.5-0.4 0.5-3.3-0.5-3.5-0.1-0.2 0.4 3.4 8.1 4.1 16.1 0.8 8 0.6 30.8 0.6 30.8z" class="a"/><path d="m27.6 31.9c0.4-0.2 0.1-1.2-0.1-1.4-0.2-0.4-0.8-0.8-1.1-0.8-0.3 0.1-0.1 0.8 0.1 1.3 0.2 0.6 0.7 1 1 0.9z" class="b"/><path d="m43.8 33.1c0 0 0.8-0.5 1-1.1 0.2-0.5 0.7-1.8 0.6-2.2-0.2-0.5-0.1-2.2-0.5-2.5-0.4-0.3-0.4-0.6-1-0.4-0.5 0-0.4 0-0.6 0.3-0.3 0-0.3-0.2-0.7-0.2-0.5 0-0.7-0.1-0.6 0.5-0.3-0.6-1.7-0.3-0.9 0.2 0.1 0.8 0.5 1.6-0.6 1.1-0.6-0.2-0.7 1-0.5 1.5 0.2 0.6 0.2 1.8 0.3 2.3 0.1 0.5-0.6 1.5-0.2 2 0.4 0.5 3.8-1.4 3.8-1.4z" class="a"/></svg>
